<svg xmlns="http://www.w3.org/2000/svg" xml:space="preserve" viewBox="0 0 403.68 411.71"><path d="M268.84 222.5c91 13 134.84-16.64 134.84-16.64-25.96-21.94-118.14-21.74-135.21-19.32 81.91-30.16 107.37-82.04 107.37-82.04-71 3-129 55-129 55 57-67 57-133 57-133-61 44-84 114-84 114C231.67 52.24 206.78 8.28 202.2 1.07V0s-.13.17-.36.52c-.23-.35-.36-.52-.36-.52v1.07c-4.58 7.21-29.47 51.17-17.64 139.43 0 0-23-70-84-114 0 0 0 66 57 133 0 0-58-52-129-55 0 0 25.46 51.89 107.37 82.04-17.07-2.43-109.25-2.63-135.21 19.32 0 0 43.84 29.64 134.84 16.64 0 0-91 45-109 86 0 0 75-8 128-55 0 0-57.48 71.79-52.74 133.39 0 0 59.74-41.39 81.74-116.39 0 0-8.14 124.2 18.64 140.78v.43c.12-.06.24-.15.36-.22.12.07.23.15.36.22v-.43c26.78-16.58 18.64-140.78 18.64-140.78 22 75 81.74 116.39 81.74 116.39 4.74-61.61-52.74-133.39-52.74-133.39 53 47 128 55 128 55-18-41-109-86-109-86" style="fill:#5f5340"/></svg>