<svg xmlns="http://www.w3.org/2000/svg" xml:space="preserve" viewBox="0 0 426 358"><style>.st1{fill:#605441}</style><g id="Layer_2"><path d="M230.94 113.56c4.17 2.16 9.3.53 11.46-3.64 12.21-23.56 30.78-50.41 39.48-52.7 9.31-2.45 21.26-.64 45.23 52.3a8.5 8.5 0 0 0 7.75 5c1.17 0 2.36-.24 3.5-.76a8.504 8.504 0 0 0 4.24-11.25c-19.69-43.49-37.46-68.98-65.05-61.72-6.12 1.61-16.3 6.86-34.03 33.8-9.13 13.88-15.93 26.97-16.22 27.52-2.16 4.16-.53 9.29 3.64 11.45M79.92 113.76c1.14.52 2.33.76 3.5.76a8.51 8.51 0 0 0 7.75-5c23.97-52.93 35.91-54.75 45.23-52.3 8.7 2.29 27.26 29.14 39.48 52.7 2.16 4.17 7.29 5.79 11.46 3.64a8.5 8.5 0 0 0 3.64-11.46c-.29-.55-7.08-13.64-16.22-27.52-17.73-26.94-27.91-32.19-34.03-33.8-27.61-7.26-45.35 18.23-65.05 61.72-1.93 4.29-.03 9.32 4.24 11.26" class="st1"/><circle cx="210" cy="210.69" r="12.19" class="st1"/><path d="m416.43 249.08-39.69-9.74c-.02 0-.03-.02-.03-.04 4.05-15.97 3.62-31.96 1.24-46.2 0-.02.01-.04.03-.04l33.65-6.26a8.496 8.496 0 0 0 6.69-10.43c-1.1-4.41-5.65-7.05-10.12-6.22l-34 6.32c-.02 0-.04-.01-.04-.03-5.47-19.1-13.06-32.4-13.74-33.58a8.504 8.504 0 0 0-11.61-3.08c-4.06 2.35-5.44 7.55-3.09 11.61.15.25 6.62 11.67 11.53 28.18.01.02-.01.04-.03.05l-21.59 4.01a8.49 8.49 0 0 0-6.8 9.91 8.504 8.504 0 0 0 8.35 6.95q.78 0 1.56-.15l22.34-4.15c.02 0 .04.01.04.03 2.02 12.21 2.4 25.74-.94 39.01 0 .02-.02.03-.04.03l-25.23-6.19c-4.73-1.16-9.51 1.89-10.39 6.75-.81 4.47 2.24 8.75 6.66 9.83l22.84 5.6c.01.03.02.04.03.06-18.82 35.61-67.57 55.54-144.88 59.26-76.68-3.68-125.28-23.33-144.42-58.39-24.17-44.28 7.44-100.08 7.85-100.79 2.35-4.06.98-9.26-3.08-11.61a8.5 8.5 0 0 0-11.62 3.08c-1.52 2.61-36.86 64.58-8.12 117.38 22.18 40.75 75.67 63.41 158.99 67.35h.82c83.31-3.94 136.81-26.6 158.99-67.35.86-1.59 1.67-3.18 2.42-4.79.01-.02.02-.02.04-.02l41.73 10.24c.68.17 1.36.25 2.03.25 3.91 0 7.45-2.71 8.31-6.73.92-4.55-2.16-9-6.68-10.11" class="st1"/></g></svg>