<svg xmlns="http://www.w3.org/2000/svg" xml:space="preserve" id="Layer_1" x="0" y="0" version="1.1" viewBox="0 0 170.44 250.06"><style>.st0{fill:#48443e}</style><path d="M164.88 136.36c-.05 0-.13-.01-.18-.04v-1.08c.06-.02.15-.03.18 0 .02.02.07.19.09.27.02.06.03.09.07.09.16.01.5.01.59.01h.96v-2.2h-1.61c-.03.21-.08.38-.1.38-.05 0-.13-.01-.18-.03v-1.08c.06-.02.15-.03.18 0 .02.02.07.19.09.26.02.06.03.09.07.09.16.01.5.01.59.01h2.74c.03-.21.08-.39.1-.39.05 0 .13.01.18.04v1.08c-.06.02-.15.03-.18 0-.02-.02-.07-.19-.09-.27-.02-.06-.03-.09-.07-.09-.16-.01-.5-.01-.59-.01h-.89v2.2h1.53c.03-.21.08-.38.1-.38.05 0 .13.01.18.03v1.08c-.06.02-.15.03-.18 0-.02-.02-.07-.18-.09-.26-.02-.06-.03-.09-.07-.09-.16-.01-.5-.01-.59-.01h-2.74c-.02.21-.07.39-.09.39M164.75 139.82c-.05-.15-.1-.43-.1-.56 0-.1.06-.15.23-.15h.25v-.02c-.26-.23-.53-.7-.53-1.08 0-.24.06-.48.25-.65.24-.2.53-.2.85-.2h1.39c.1 0 .16 0 .18-.11l.05-.21c.05-.02.12-.02.17 0 .05.14.11.42.12.57l-.04.1h-2.02c-.41 0-.63.14-.63.59 0 .39.2.73.53 1.03h1.65c.1 0 .16 0 .18-.11l.05-.26c.05-.01.12-.02.17 0 .05.15.11.46.12.61l-.04.1h-2.52c-.07 0-.1.02-.1.08-.01.09-.02.2-.01.28-.05 0-.15.01-.2-.01M164.87 145.1c-.04 0-.12-.01-.17-.03v-1c.06-.02.16-.02.19 0 .02.02.05.15.08.27.01.04.02.06.06.06.16.01.43.01.57.01h1.03c.38 0 .7-.05.7-.54 0-.31-.14-.66-.45-.95-.09.01-.19.01-.3.01h-1.63c-.02.19-.06.35-.08.35-.04 0-.12-.02-.17-.04v-1c.06-.02.16-.02.19 0 .02.02.05.15.08.27.01.04.02.06.06.06.16 0 .43.01.57.01h1.03c.38 0 .7-.05.7-.55 0-.32-.15-.67-.48-.97h-1.9c-.02.19-.06.35-.08.35-.04 0-.12-.02-.17-.04v-1c.06-.01.16-.02.19 0 .02.02.06.19.08.27.01.04.02.06.06.06.16.01.43.01.57.01h1.49c.1 0 .16 0 .18-.11l.05-.23c.05-.02.12-.02.17 0 .05.15.11.44.12.59l-.04.1h-.42v.02c.27.24.48.63.48 1.04 0 .27-.09.49-.29.65-.06.05-.12.08-.19.1v.04c.27.24.48.64.48 1.04 0 .28-.09.5-.29.65s-.44.15-.77.15h-1.63c-.01.19-.04.35-.07.35M164.77 148.15c-.08-.1-.12-.22-.12-.41s.12-.29.3-.29h.16v-.01c-.04-.03-.08-.06-.12-.1-.17-.16-.38-.41-.38-.84s.2-.81.69-.81c.36 0 .65.19.84.56.13.26.25.7.3 1.18h.29c.33 0 .63-.16.63-.66 0-.26-.1-.49-.17-.54a1.2 1.2 0 0 0-.34-.04.7.7 0 0 1-.08-.33c0-.09.05-.12.13-.12.1 0 .23.06.34.17.18.18.41.53.41.98 0 .34-.12.58-.31.72-.21.14-.47.16-.67.16h-1.51c-.12 0-.21.02-.21.16 0 .08.01.14.02.18-.06.03-.15.04-.2.04m.14-1.59c0 .3.13.54.27.71.04.05.08.1.13.14h.89c-.03-.39-.16-.79-.27-.99-.12-.2-.31-.39-.58-.39-.27.01-.44.18-.44.53M164.87 151.65c-.04 0-.12-.01-.17-.03v-1c.06-.02.16-.02.19 0 .02.02.05.14.08.27.01.03.02.06.06.06.16.01.43.01.57.01h1.03c.32 0 .69-.04.69-.6 0-.35-.17-.74-.53-1.07h-1.84c-.02.19-.06.35-.08.35-.04 0-.12-.02-.17-.04v-1c.06-.01.16-.02.19 0 .02.02.06.19.08.27.01.04.02.06.06.06.16.01.43.01.57.01h1.49c.1 0 .16 0 .18-.11l.05-.23c.05-.02.12-.02.17 0 .05.15.11.44.12.59l-.04.1h-.47v.02c.3.27.53.72.53 1.15 0 .27-.1.5-.3.67-.21.17-.44.17-.77.17h-1.62c-.01.19-.04.35-.07.35M167.49 152.21c.05.14.11.46.12.61l-.04.1h-2.62c-.02.19-.06.37-.08.37-.04 0-.12-.02-.17-.04v-1.03c.06-.01.16-.02.19 0 .02.02.06.2.08.29.01.04.02.06.06.06.16.01.43.01.57.01h1.49c.1 0 .16 0 .18-.11l.05-.25a.25.25 0 0 1 .17-.01m1.12.19c.16 0 .29.13.29.29 0 .17-.13.3-.29.3s-.26-.13-.32-.3c.06-.16.16-.29.32-.29M167.47 153.56c.05.08.09.37.11.48.19.06.41.13.57.21v.16h-.61v.9h-.24c-.02 0-.04-.02-.04-.04v-.86h-2.06c-.23 0-.3.08-.3.33 0 .17.03.38.08.54-.05.02-.12.05-.18.05-.14-.21-.2-.52-.2-.81 0-.19.08-.45.46-.45h2.2v-.47c0-.03.16-.07.21-.04M167.34 158.39c-.03-.06-.07-.18-.08-.25-.14-.08-.53-.23-.71-.3l-1.84-.75c-.33-.13-.91-.45-1.04-.54-.31-.2-.47-.41-.47-.72 0-.24.09-.45.27-.45.13 0 .25.06.28.12v.03c-.09.14-.19.34-.19.48 0 .12.08.23.19.32.14.12.59.37.92.49l1.97-.81c.2-.08.38-.17.52-.23.09-.04.1-.08.11-.11l.05-.2c.05-.02.16-.04.2-.01v.99c-.05.03-.13.04-.19.04-.01 0-.05-.16-.08-.33-.16.05-.37.12-.59.21l-.74.29-.78.31v.07l.7.26.75.28c.23.09.49.16.65.21.02-.12.06-.31.08-.31.04 0 .13.01.18.04v.89c-.01.01-.11 0-.16-.02M167.49 160.42c.05.14.11.46.12.61l-.04.1h-2.62c-.02.19-.06.37-.08.37-.04 0-.12-.02-.17-.04v-1.03c.06-.01.16-.02.19 0 .02.02.06.2.08.29.01.03.02.06.06.06.16.01.43.01.57.01h1.49c.1 0 .16 0 .18-.11l.05-.25a.25.25 0 0 1 .17-.01m1.12.2c.16 0 .29.13.29.3s-.13.29-.29.29-.26-.13-.32-.29c.06-.18.16-.3.32-.3M164.71 162.23l.06-.2c.01-.03.02-.03.05-.03h.67c.02.05.02.09.01.14l-.3.13c-.19.07-.35.26-.35.73s.24.67.53.67c.32 0 .44-.24.54-.52l.17-.45c.13-.35.38-.67.79-.67.35 0 .77.28.77.93 0 .27-.05.45-.12.66l-.09.21c-.01.02-.02.03-.05.03h-.56a.3.3 0 0 1 0-.13l.25-.13c.14-.06.32-.21.32-.66 0-.42-.21-.58-.47-.58-.31 0-.42.21-.53.5l-.16.45c-.16.43-.37.68-.8.68-.39 0-.83-.27-.83-1.1-.01-.24.05-.48.1-.66M164.92 164.66c.17 0 .32.13.32.31s-.15.31-.32.31-.27-.13-.35-.31c.08-.18.18-.31.35-.31M164.92 166.04c.17 0 .32.13.32.31s-.15.31-.32.31-.27-.13-.35-.31c.08-.18.18-.31.35-.31M164.92 167.44c.17 0 .32.13.32.31s-.15.31-.32.31-.27-.13-.35-.31c.08-.18.18-.31.35-.31M167.47 168.48c.05.08.09.37.11.48.19.06.41.13.57.21v.16h-.61v.9h-.24c-.02 0-.04-.02-.04-.04v-.86h-2.06c-.23 0-.3.08-.3.33 0 .17.03.38.08.54-.05.02-.12.05-.18.05-.14-.21-.2-.52-.2-.81 0-.19.08-.45.46-.45h2.2v-.47c0-.02.16-.06.21-.04M164.87 173.79c-.04 0-.12-.02-.17-.04v-1c.06-.01.16-.02.19 0 .02.02.05.14.08.27.01.03.02.06.06.06.16.01.43.01.57.01h1.03c.32 0 .69-.04.69-.59 0-.35-.17-.75-.53-1.07h-1.83c-.02.19-.06.35-.08.35-.04 0-.12-.02-.17-.04v-1c.06-.02.16-.02.19 0 .02.02.06.19.08.27.01.04.02.06.06.06.16.01.43.01.57.01h2.99c.11 0 .16 0 .19-.11l.04-.24c.05-.01.12-.02.17 0 .05.15.11.44.12.59l-.04.1h-1.97v.03c.3.27.53.73.53 1.15 0 .27-.1.5-.3.66-.21.17-.44.17-.77.17h-1.62c-.02.2-.05.36-.08.36M164.91 175.75c0 .35.06.64.21.88l-.14.08c-.27-.26-.38-.68-.38-1.07 0-.81.55-1.32 1.44-1.32.99 0 1.6.54 1.6 1.37 0 .37-.15.68-.41.88-.2.14-.42.2-.71.2-.14 0-.3-.01-.41-.03v-2.06h-.08c-.55 0-1.12.26-1.12 1.07m1.48.69h.13c.54 0 .84-.3.84-.81 0-.61-.49-.9-.97-.95zM163.48 180.73c.02 0 .06.24.08.41h1.58v-.02c-.36-.23-.54-.63-.54-1.03 0-.78.6-1.11 1.33-1.11.99 0 1.71.58 1.71 1.59 0 .25-.06.48-.11.68.04.03.07.06.09.1.01.03.01.1 0 .14h-3.41c-.15 0-.41.01-.57.01q-.06 0-.06.06c-.02.08-.06.25-.08.27s-.13.02-.19 0v-1.06a.4.4 0 0 1 .17-.04m1.43-.57c0 .35.16.7.56.98h1.11c.19 0 .43-.01.54-.02.04-.01.07-.03.1-.09.05-.09.12-.31.12-.63 0-.23-.04-.45-.22-.66-.16-.18-.49-.41-1.16-.41-.7 0-1.05.26-1.05.83M164.75 185.14c-.05-.15-.1-.43-.1-.56 0-.1.06-.15.23-.15h.25v-.02c-.26-.23-.53-.7-.53-1.08 0-.24.06-.48.25-.65.24-.2.53-.2.85-.2h1.39c.1 0 .16 0 .18-.11l.05-.21c.05-.02.12-.02.17 0 .05.14.11.42.12.57l-.04.1h-2.02c-.41 0-.63.14-.63.59 0 .39.2.72.53 1.03h1.65c.1 0 .16 0 .18-.11l.05-.25c.05-.01.12-.02.17 0 .05.14.11.46.12.61l-.04.1h-2.52c-.07 0-.1.02-.1.08-.01.09-.02.2-.01.28-.05-.01-.15 0-.2-.02M164.77 188.18c-.08-.1-.12-.22-.12-.41s.12-.29.3-.29h.16c-.04-.03-.08-.06-.12-.1-.17-.16-.38-.41-.38-.84 0-.44.2-.81.69-.81.36 0 .65.19.84.56.13.26.25.7.3 1.18h.29c.33 0 .63-.16.63-.66 0-.26-.1-.49-.17-.54a1.2 1.2 0 0 0-.34-.04.7.7 0 0 1-.08-.33c0-.09.05-.12.13-.12.1 0 .23.06.34.17.18.18.41.53.41.98 0 .34-.12.58-.31.72-.21.14-.47.16-.67.16h-1.51c-.12 0-.21.02-.21.16 0 .08.01.14.02.18-.06.03-.15.04-.2.03m.14-1.58c0 .3.13.54.27.71.04.05.08.1.13.15h.89c-.03-.39-.16-.79-.27-.99-.12-.2-.31-.39-.58-.39s-.44.16-.44.52M164.89 188.65c.02.02.07.21.08.29.01.04.02.06.06.06.16.01.43.01.57.01h2.99c.11 0 .16 0 .19-.11l.04-.27c.05-.02.12-.02.17 0 .05.14.11.48.12.62l-.04.1h-4.12c-.02.19-.06.37-.08.37-.04 0-.12-.02-.17-.04v-1.03c.06-.01.16-.02.19 0M167.49 190.25c.05.14.11.46.12.61l-.04.1h-2.62c-.02.19-.06.37-.08.37-.04 0-.12-.02-.17-.04v-1.03c.06-.01.16-.02.19 0 .02.02.06.2.08.29.01.03.02.06.06.06.16.01.43.01.57.01h1.49c.1 0 .16 0 .18-.11l.05-.25c.05-.03.12-.03.17-.01m1.12.19c.16 0 .29.13.29.3s-.13.29-.29.29-.26-.13-.32-.29c.06-.17.16-.3.32-.3M167.47 191.62c.05.08.09.37.11.48.19.06.41.13.57.21v.16h-.61v.9h-.24c-.02 0-.04-.02-.04-.04v-.86h-2.06c-.23 0-.3.08-.3.33 0 .17.03.38.08.54-.05.02-.12.05-.18.05-.14-.21-.2-.52-.2-.81 0-.19.08-.45.46-.45h2.2v-.47c0-.03.16-.07.21-.04M167.34 196.45c-.03-.06-.07-.18-.08-.25-.14-.08-.53-.23-.71-.3l-1.84-.75c-.33-.13-.91-.45-1.04-.54-.31-.2-.47-.41-.47-.72 0-.24.09-.45.27-.45.13 0 .25.06.28.12v.03c-.09.14-.19.34-.19.48 0 .12.08.23.19.32.14.12.59.37.92.49l1.97-.81c.2-.08.38-.17.52-.23.09-.04.1-.08.11-.11l.05-.2c.05-.02.16-.04.2-.01v.99c-.05.03-.13.04-.19.04-.01 0-.05-.16-.08-.33-.16.05-.37.12-.59.21l-.74.29-.78.31v.07l.7.26.75.28c.23.09.49.16.65.21.02-.12.06-.31.08-.31.04 0 .13.01.18.04v.89c-.01.01-.11 0-.16-.02M166.13 198.5c.94 0 1.51.51 1.51 1.36 0 .84-.57 1.35-1.51 1.35-.95 0-1.52-.5-1.52-1.35-.01-.85.57-1.36 1.52-1.36m-1.25 1.35c0 .61.45.99 1.25.99.79 0 1.24-.38 1.24-.98 0-.61-.45-.99-1.24-.99-.8-.01-1.25.38-1.25.98M167.38 203.77c-.14 0-.26-.06-.3-.16v-.05c.08-.07.18-.18.23-.26-.09-.26-.24-.58-.52-.83h-1.83c-.02.17-.06.41-.08.41-.04 0-.12-.01-.17-.03v-1.06c.06-.01.16-.02.19 0 .02.02.06.19.08.27.01.04.02.06.06.06.16.01.43.01.57.01h1.49c.1 0 .16 0 .18-.11l.05-.23c.05-.02.12-.02.17 0 .05.14.11.44.12.59l-.04.1h-.5v.02c.23.2.56.66.56 1 0 .19-.09.27-.26.27M164.71 205.97l.06-.2c.01-.03.02-.03.05-.03h.67c.02.05.02.09.01.14l-.3.13c-.19.07-.35.26-.35.73 0 .48.24.67.53.67.32 0 .44-.24.54-.52l.17-.45c.13-.35.38-.67.79-.67.35 0 .77.28.77.93 0 .27-.05.45-.12.66l-.09.21c-.01.02-.02.03-.05.03h-.56a.3.3 0 0 1 0-.13l.25-.13c.14-.06.32-.21.32-.66 0-.42-.21-.58-.47-.58-.31 0-.42.21-.53.5l-.16.45c-.16.43-.37.68-.8.68-.39 0-.83-.27-.83-1.1-.01-.25.05-.49.1-.66M167.47 208.02c.05.08.09.37.11.48.19.06.41.13.57.21v.16h-.61v.9h-.24c-.02 0-.04-.02-.04-.04v-.86h-2.06c-.23 0-.3.08-.3.33 0 .17.03.38.08.54-.05.02-.12.05-.18.05-.14-.21-.2-.52-.2-.81 0-.19.08-.45.46-.45h2.2v-.47c0-.02.16-.07.21-.04M164.77 212.81c-.08-.1-.12-.22-.12-.41s.12-.29.3-.29h.16c-.04-.03-.08-.06-.12-.1-.17-.16-.38-.41-.38-.84 0-.44.2-.81.69-.81.36 0 .65.19.84.56.13.26.25.7.3 1.18h.29c.33 0 .63-.16.63-.66 0-.26-.1-.49-.17-.54a1.2 1.2 0 0 0-.34-.04.7.7 0 0 1-.08-.33c0-.09.05-.12.13-.12.1 0 .23.06.34.17.18.18.41.53.41.98 0 .34-.12.58-.31.72-.21.14-.47.16-.67.16h-1.51c-.12 0-.21.02-.21.16 0 .08.01.14.02.18-.06.02-.15.03-.2.03m.14-1.59c0 .3.13.54.27.71.04.05.08.1.13.15h.89c-.03-.39-.16-.79-.27-.99-.12-.2-.31-.39-.58-.39s-.44.17-.44.52M167.47 213.02c.05.08.09.37.11.48.19.06.41.13.57.21v.16h-.61v.9h-.24c-.02 0-.04-.02-.04-.04v-.86h-2.06c-.23 0-.3.08-.3.33 0 .17.03.38.08.54-.05.02-.12.05-.18.05-.14-.21-.2-.52-.2-.81 0-.19.08-.45.46-.45h2.2v-.47c0-.02.16-.07.21-.04M164.91 216.74c0 .35.06.64.21.88l-.14.08c-.27-.26-.38-.68-.38-1.07 0-.81.55-1.32 1.44-1.32.99 0 1.6.54 1.6 1.37 0 .37-.15.68-.41.88-.2.14-.42.2-.71.2-.14 0-.3-.01-.41-.03v-2.06h-.08c-.55.01-1.12.26-1.12 1.07m1.48.69h.13c.54 0 .84-.3.84-.81 0-.61-.49-.9-.97-.95zM166.15 219.98c.94.07 1.47.62 1.41 1.47-.06.84-.68 1.3-1.61 1.23-.94-.07-1.48-.62-1.42-1.46.06-.85.68-1.32 1.62-1.24m-1.34 1.25c-.05.61.37 1.02 1.17 1.08.79.06 1.26-.28 1.31-.88.05-.61-.37-1.02-1.16-1.08-.8-.07-1.28.28-1.32.88M168.17 225.76c-.12-.02-.2-.1-.22-.2l.01-.04c.2-.17.29-.31.32-.51.06-.33-.19-.55-.77-.65l-.42-.08-.15.82-.23-.04c-.02 0-.04-.02-.03-.04l.14-.78-2.27-.41c-.05.17-.13.39-.15.39-.04-.01-.12-.03-.17-.07l.19-1.04c.06 0 .16.01.18.03.01.02.03.2.03.28 0 .04.01.06.05.07.16.04.43.09.56.11l1.63.3.09-.51c0-.02.16.01.21.03-.01.1-.02.32-.02.5v.02l.25.04c.35.06.6.17.78.32.3.24.42.62.35 1.02-.04.31-.18.47-.36.44M163.7 226.68l3.61 1.3c.1.04.15.06.21-.04l.12-.2c.06 0 .12.02.16.06 0 .15-.04.45-.09.6l-.07.07-1.12-.4-.72-.28-.01.04c.24.34.27.77.13 1.15-.23.63-.85.87-1.65.58-1.01-.36-1.36-1.19-1.04-2.08.13-.34.32-.64.47-.8m-.26 1.05c-.08.21-.1.44 0 .7.09.22.3.54.95.78.64.23 1.08.14 1.28-.4.11-.32.1-.65-.19-1.12l-1.64-.59c-.17.17-.32.41-.4.63M162.17 230.78c-.16.31-.23.6-.21.88l-.16.01c-.13-.36-.04-.78.14-1.13.36-.73 1.08-.94 1.88-.54.89.44 1.19 1.2.82 1.94-.16.33-.44.55-.76.61-.24.04-.47-.01-.72-.14-.12-.06-.27-.14-.36-.21l.92-1.84-.07-.03c-.5-.26-1.12-.28-1.48.45m1.01 1.28.11.06c.48.24.88.11 1.11-.34.27-.54-.03-1.03-.44-1.28zM163.65 233.43c-.04.15-.15.45-.22.59l-.09.06-2.24-1.37c-.12.15-.24.28-.26.27-.04-.02-.09-.08-.13-.12l.54-.88c.06.02.15.07.16.1.01.02-.05.21-.08.29-.01.03-.01.06.02.08.14.09.36.24.48.31l1.27.78c.09.05.14.08.21 0l.17-.19c.08.01.13.04.17.08m.85.76c.13.08.18.26.09.4s-.27.18-.4.1c-.14-.08-.16-.25-.12-.42.14-.11.3-.17.43-.08M158.82 235.76a.5.5 0 0 1-.12-.13l.6-.79c.06.02.14.08.15.11 0 .02-.05.15-.1.27-.02.03-.02.06.02.08.13.1.33.27.45.36l.82.62c.26.2.57.39.91-.06.21-.28.31-.69.22-1.17l-1.47-1.11c-.13.13-.26.24-.28.23a.4.4 0 0 1-.11-.14l.6-.79c.05.03.14.08.15.11 0 .02-.06.19-.1.27-.02.03-.02.06.02.08.13.1.33.27.45.36l1.19.9c.08.06.13.1.21.02l.18-.16c.05.02.1.06.14.1-.05.14-.18.42-.26.55l-.09.05-.37-.28-.01.02c.08.4-.01.9-.27 1.24-.16.21-.38.34-.64.35-.27.01-.45-.13-.71-.33l-1.29-.98c-.14.13-.27.24-.29.22M158.44 239.61c.04-.04.18-.18.34-.32-.24 0-.48-.1-.69-.3-.46-.46-.39-1.07.05-1.52.12-.12.26-.22.41-.28a.85.85 0 0 0-.17-.37c-.14-.14-.32-.02-.49.13l-.47.39c-.46.38-.86.62-1.23.26-.28-.28-.29-.67-.19-1.02.11-.38.3-.62.53-.86.55-.56 1-.67 1.37-.31.3.29.27.66.2.94l.02.02c.14-.05.27-.02.38.08.09.09.21.29.24.49l.03.18c.3-.06.62.03.89.29.46.46.38 1.06-.05 1.5-.11.11-.22.19-.34.26l-.77.78-.14-.14c-.06-.05 0-.11.08-.2m-1.71-3.69c-.46.47-.68 1.03-.37 1.34.27.26.58.04.94-.26l.6-.5c.05-.33-.01-.59-.2-.78l-.08-.08c-.17-.17-.5-.12-.89.28m1.61 1.73c-.31.31-.36.74 0 1.1.35.35.78.29 1.09-.02.3-.3.35-.73 0-1.08-.36-.35-.79-.3-1.09 0M152.67 240.95a.6.6 0 0 1-.06-.17l.82-.56c.04.04.11.12.1.15 0 .02-.09.12-.18.22-.03.02-.03.05-.01.09.09.14.23.36.31.48l.58.85c.18.27.42.55.88.23.29-.2.52-.56.58-1.05l-1.04-1.51c-.17.09-.32.15-.33.13-.02-.03-.05-.11-.07-.16l.82-.56c.05.04.11.12.1.15 0 .02-.12.16-.18.22-.03.02-.04.05-.01.08.09.14.23.36.31.48l1.69 2.46c.06.09.09.13.2.09l.22-.1c.04.04.08.09.1.14-.09.12-.3.34-.42.43l-.1.02-1.12-1.62-.02.02c-.05.4-.3.85-.64 1.09-.22.15-.47.2-.71.12-.26-.08-.39-.26-.58-.53l-.92-1.33c-.16.1-.31.16-.32.14M149.68 242.34c.11-.11.34-.29.46-.35.09-.04.16-.01.23.14l.12.23.02-.01c.09-.34.39-.79.73-.96.22-.11.46-.17.7-.07.29.12.42.38.57.67l.63 1.24c.05.09.07.14.18.11l.21-.06c.04.04.07.09.08.15-.1.1-.32.29-.45.37l-.11.01-.92-1.81c-.18-.36-.42-.5-.81-.3-.35.18-.56.5-.68.93l.75 1.47c.05.09.07.14.18.11l.25-.07c.03.04.07.1.08.16-.11.11-.36.31-.49.38l-.11.01-1.14-2.25c-.03-.06-.06-.08-.11-.06-.08.03-.19.08-.25.12-.06-.02-.11-.1-.12-.16M144.9 244.07c-.01-.04-.03-.12-.02-.18l.95-.3c.03.05.07.15.06.18-.01.02-.12.09-.24.16-.03.02-.05.04-.04.08.04.16.12.41.16.55l.31.98c.11.37.25.65.73.5.3-.09.58-.33.78-.71-.03-.09-.06-.18-.09-.28l-.5-1.55c-.18.03-.35.05-.36.03a1 1 0 0 1-.02-.18l.95-.3c.03.05.07.15.05.18-.01.02-.12.09-.24.16-.03.02-.05.04-.04.08.04.16.12.41.16.55l.31.98c.11.37.25.65.73.5.31-.1.6-.34.78-.74l-.56-1.81c-.18.03-.35.05-.36.03a.5.5 0 0 1-.01-.18l.95-.3c.03.05.07.15.05.18-.01.02-.16.12-.24.16-.03.02-.05.04-.04.08.04.16.12.41.16.55l.44 1.42c.03.1.05.16.16.14l.24-.03c.03.04.05.11.05.17-.12.09-.39.24-.53.29l-.11-.01-.12-.4-.02.01c-.15.33-.46.65-.85.77-.26.08-.5.06-.71-.08a.5.5 0 0 1-.15-.15l-.04.01c-.15.33-.47.65-.85.77-.27.08-.5.06-.71-.08-.2-.15-.27-.38-.37-.69l-.48-1.56c-.15.03-.31.05-.32.02M142.05 244.32c.09-.1.2-.15.38-.18s.3.07.33.26l.02.16h.01c.02-.04.05-.09.08-.14.13-.19.35-.44.78-.5s.83.08.9.56c.05.36-.09.67-.43.91-.24.17-.66.35-1.12.47l.04.29c.05.33.25.6.74.53.26-.04.47-.17.51-.25a1 1 0 0 0-.02-.34c.07-.06.21-.11.32-.13.09-.01.13.03.14.11.01.1-.03.23-.12.36-.15.2-.47.48-.91.55-.33.05-.59-.03-.76-.21-.17-.19-.22-.44-.25-.64l-.22-1.5c-.02-.11-.05-.2-.19-.18-.08.01-.14.03-.17.04-.04-.03-.06-.12-.06-.17m1.58-.09c-.3.04-.52.21-.67.37-.04.05-.09.09-.12.15l.13.88c.38-.08.76-.27.94-.41s.34-.37.3-.63c-.04-.27-.23-.41-.58-.36M138.67 244.52c0-.04.01-.12.03-.17l1-.02c.02.06.03.16 0 .19-.02.02-.14.06-.27.09-.03.01-.06.02-.06.07v.57l.02 1.03c.01.32.05.69.61.68.35-.01.73-.18 1.06-.55l-.04-1.84c-.19-.02-.35-.05-.35-.07 0-.04.01-.12.04-.17l1-.02c.01.06.03.16 0 .19-.02.02-.19.07-.27.09-.04.01-.06.02-.06.06v.57l.03 1.49c0 .1 0 .16.11.18l.23.04c.02.05.02.12 0 .17-.14.05-.44.12-.59.13l-.1-.04-.01-.47h-.02c-.27.31-.71.55-1.14.56-.27.01-.5-.09-.67-.29-.17-.21-.18-.44-.18-.76l-.03-1.62c-.17-.03-.34-.07-.34-.09M138.08 244.54c0 .17-.13.32-.31.32s-.31-.15-.31-.32.13-.27.31-.35c.17.08.31.18.31.35M135.41 247.1c-.08.05-.37.09-.48.11-.06.19-.13.41-.21.57h-.16v-.61h-.9v-.24c0-.02.02-.04.04-.04h.86v-2.06c0-.23-.08-.3-.33-.3-.17 0-.38.03-.54.08-.02-.05-.05-.12-.05-.18.21-.14.52-.2.81-.2.19 0 .45.08.45.46v2.2h.47c.03 0 .07.16.04.21M130.13 244.49c0-.04.02-.12.04-.17l1 .01c.01.06.02.16 0 .19-.02.02-.15.05-.27.08-.03.01-.06.02-.06.06-.01.16-.02.43-.02.57l-.01 1.03c0 .32.03.69.59.69.35 0 .75-.16 1.08-.53l.01-1.83c-.19-.02-.35-.06-.35-.08 0-.04.02-.12.04-.17l1 .01c.02.06.02.16 0 .19-.02.02-.19.06-.27.08-.04.01-.06.02-.06.06-.01.16-.01.43-.02.57l-.02 2.99c0 .11 0 .16.11.19l.24.04c.01.05.02.12 0 .17-.15.05-.44.11-.59.12l-.1-.04.02-1.97h-.03c-.27.3-.73.53-1.15.52-.27 0-.5-.1-.66-.31-.17-.21-.17-.44-.17-.77l.01-1.62c-.2-.02-.36-.06-.36-.08M128.18 244.5c-.35-.01-.64.05-.89.19l-.08-.14c.27-.27.69-.37 1.08-.36.81.02 1.31.58 1.29 1.47-.02.99-.58 1.59-1.41 1.57-.37-.01-.68-.16-.87-.43-.14-.2-.19-.43-.19-.71 0-.14.01-.3.04-.41l2.06.05v-.08c.02-.56-.22-1.13-1.03-1.15m-.73 1.46v.13c-.01.54.28.85.79.86.61.01.92-.47.97-.95zM123.36 242.85c0 .02-.24.05-.42.06l-.1 1.58h.02c.25-.34.66-.51 1.06-.48.78.05 1.07.67 1.03 1.4-.06.98-.69 1.66-1.69 1.6-.25-.02-.48-.09-.67-.15-.03.03-.07.07-.1.09-.03.01-.1 0-.14-.01l.21-3.4c.01-.14.02-.41.02-.57 0-.04-.02-.06-.05-.07-.08-.02-.25-.08-.27-.1s-.01-.13.01-.19l1.06.06c.02.06.03.14.03.18m.48 1.46c-.35-.02-.7.12-1.01.5l-.07 1.11c-.01.19-.02.43-.01.54 0 .04.02.07.08.1.08.05.3.14.62.16.23.01.45-.01.67-.18.19-.15.43-.47.47-1.13.05-.7-.19-1.06-.75-1.1M118.9 243.77c.15-.03.44-.07.57-.06.1.01.14.07.12.24l-.02.25h.02c.25-.24.75-.47 1.13-.43.24.02.48.1.63.31.18.25.16.55.13.87l-.12 1.38c-.01.1-.01.16.09.19l.21.06c.01.05.01.12-.02.17-.14.03-.43.07-.58.07l-.09-.05.18-2.02c.04-.41-.09-.64-.54-.68-.39-.03-.74.13-1.07.44l-.14 1.64c-.01.1-.01.16.09.19l.25.07c.01.05.01.12-.01.17-.15.03-.47.07-.62.07l-.1-.05.22-2.51c.01-.07-.01-.1-.07-.11-.09-.01-.2-.04-.28-.04 0-.03 0-.13.02-.17M115.9 243.46c.11-.07.23-.1.42-.08s.28.15.25.33l-.02.16h.01c.03-.04.07-.07.12-.11.17-.15.45-.34.88-.29s.79.29.73.78c-.04.36-.26.62-.65.78-.27.1-.73.18-1.2.17l-.03.29c-.04.33.09.65.58.7.26.03.5-.05.55-.11.04-.07.06-.24.07-.34.09-.04.23-.06.34-.04.09.01.12.07.11.14-.01.1-.09.22-.21.31-.2.16-.58.35-1.02.3-.33-.04-.56-.18-.68-.39-.12-.22-.1-.49-.08-.68l.17-1.51c.01-.12 0-.21-.13-.22-.08-.01-.14 0-.18 0-.04-.05-.04-.14-.03-.19m1.56.31c-.3-.03-.56.07-.74.19-.05.04-.11.07-.16.11l-.1.89c.39.01.8-.07 1.02-.16.21-.09.42-.27.45-.53.03-.27-.12-.46-.47-.5M115.45 243.51c-.02.02-.22.04-.3.04-.04 0-.06.02-.07.06-.03.16-.07.42-.08.57l-.39 2.97c-.01.11-.02.16.08.2l.26.07c.01.05 0 .12-.02.17-.15.03-.49.05-.63.04l-.09-.05.53-4.09c-.19-.05-.36-.1-.35-.13.01-.04.03-.12.06-.17l1.02.13c.02.07.01.17-.02.19M113.16 246.96c-.02.16-.17.27-.33.25-.17-.02-.27-.17-.25-.33s.16-.24.34-.27c.15.08.26.19.24.35m.35-1.08c-.15.03-.47.04-.63.03l-.09-.05.37-2.59c-.19-.05-.35-.11-.35-.13.01-.04.04-.12.07-.17l1.02.15c0 .06 0 .16-.03.18-.02.01-.21.03-.3.04-.04 0-.06.01-.07.05-.03.16-.07.42-.09.57l-.21 1.47c-.01.1-.02.16.08.19l.25.08c.01.07.01.13-.02.18M112.16 245.67c-.08.03-.38.03-.49.03-.09.17-.19.38-.3.53l-.16-.02.1-.61-.89-.14.04-.24c0-.02.02-.04.05-.03l.85.13.32-2.04c.04-.22-.03-.3-.28-.34a1.6 1.6 0 0 0-.54 0 .4.4 0 0 1-.02-.18c.23-.11.55-.12.83-.08.18.03.43.15.37.53l-.34 2.17.46.07c.02.01.04.17 0 .22M107.37 244.73c.07-.02.19-.04.26-.04.1-.12.32-.48.42-.64l1.06-1.68c.19-.3.61-.82.71-.93.25-.27.48-.39.8-.33.23.04.42.16.39.35-.02.13-.1.24-.17.26h-.03c-.12-.12-.3-.24-.44-.27-.12-.02-.24.03-.35.13-.14.12-.46.52-.64.82l.45 2.08c.04.21.1.41.13.55.02.09.06.12.09.13l.18.09c.01.05.01.16-.02.2l-.98-.17a.4.4 0 0 1 0-.19c0-.01.17-.02.33-.02-.02-.17-.05-.39-.1-.61l-.16-.78-.17-.82-.07-.01-.38.64-.41.69c-.13.21-.25.45-.32.6.11.04.3.12.29.14-.01.04-.03.12-.07.17l-.88-.16c.02-.06.05-.16.08-.2M105.57 243.13c-.2.92-.82 1.37-1.65 1.19-.82-.18-1.19-.85-.99-1.76.2-.92.82-1.38 1.64-1.2.83.18 1.2.85 1 1.77m-1.05-1.5c-.59-.13-1.06.23-1.23 1.01-.17.77.1 1.29.69 1.42s1.06-.22 1.23-.99c.18-.8-.1-1.31-.69-1.44M100.12 243.18c.03-.14.12-.24.23-.26l.04.01c.05.09.13.22.2.28.27-.02.63-.1.94-.31l.43-1.78c-.17-.06-.38-.15-.38-.17.01-.04.04-.12.08-.16l1.03.25c0 .06-.01.16-.04.18-.02.01-.2.02-.28.02-.04 0-.06.01-.07.05-.04.16-.11.42-.15.56l-.35 1.45c-.02.1-.04.16.07.2l.21.1c0 .06-.01.12-.04.17-.15.01-.46 0-.6-.02l-.09-.06.12-.49h-.02c-.25.17-.78.39-1.11.31-.2-.06-.25-.17-.22-.33M98.68 240.04l.18.12c.02.02.02.03.02.05l-.18.64c-.05 0-.09-.01-.14-.03l-.04-.32c-.02-.2-.16-.4-.61-.53-.46-.13-.71.05-.79.33-.08.31.12.48.36.66l.39.28c.31.22.54.54.43.94-.09.34-.47.67-1.1.49-.26-.07-.42-.17-.6-.29l-.18-.15c-.02-.02-.02-.03-.02-.05l.15-.54q.06 0 .12.03l.06.28c.02.15.12.36.55.48.41.11.62-.05.68-.3.08-.3-.09-.46-.35-.64l-.39-.27c-.38-.27-.56-.54-.45-.95.1-.37.48-.73 1.28-.51.26.06.48.18.63.28M95.94 242.15c-.09.02-.38-.02-.49-.03-.11.16-.24.35-.37.49l-.16-.05.17-.59-.86-.25.07-.23c.01-.02.03-.03.05-.03l.82.24.59-1.98c.06-.22.01-.31-.23-.38-.17-.05-.38-.08-.54-.08a.4.4 0 0 1 .01-.19c.25-.08.56-.05.83.03.18.05.41.21.3.57l-.62 2.11.45.13c.03.03.02.2-.02.24M92.17 238.16c.12-.05.25-.05.42.01.18.06.24.2.19.38l-.05.15h.01c.04-.03.08-.06.14-.08.2-.11.5-.24.92-.11.41.13.71.44.56.9-.11.34-.38.56-.78.63-.29.05-.75.03-1.21-.07l-.09.28c-.1.31-.04.65.43.8.25.08.5.05.57 0 .05-.06.11-.22.14-.32.09-.02.24-.01.34.02.08.03.1.09.08.16-.03.1-.13.2-.27.27-.23.12-.63.23-1.06.1-.32-.1-.52-.29-.59-.52-.08-.24-.01-.5.05-.68l.46-1.44c.04-.11.04-.21-.09-.25-.08-.02-.14-.03-.18-.04-.03-.05-.01-.15.01-.19m1.46.61c-.29-.09-.56-.04-.76.04-.06.03-.12.05-.18.08l-.27.85c.38.09.8.09 1.03.05.23-.05.46-.18.54-.43.09-.27-.02-.48-.36-.59M91.11 240.66c-.09.02-.38-.03-.49-.05-.12.16-.26.34-.39.48l-.15-.05.2-.58-.85-.29.08-.22c.01-.02.03-.03.05-.03l.81.28.66-1.96c.07-.21.02-.31-.22-.39-.16-.06-.37-.1-.54-.1-.01-.05 0-.13.01-.18.25-.07.56-.03.83.07.18.06.4.22.28.58l-.71 2.08.45.15c.03 0 .02.17-.02.21M88.45 237.03c-.33-.12-.62-.16-.9-.1l-.03-.16c.34-.17.77-.13 1.14 0 .76.28 1.06.97.76 1.8-.34.93-1.06 1.32-1.83 1.04-.34-.12-.6-.37-.69-.68-.07-.24-.05-.47.05-.74.05-.13.11-.28.17-.38l1.94.7.03-.07c.18-.52.13-1.14-.64-1.41m-1.15 1.16-.04.12c-.18.51-.01.89.47 1.07.57.21 1.02-.15 1.22-.59zM85.01 237.03c-.35.87-1.04 1.21-1.83.89-.78-.32-1.03-1.04-.68-1.91.36-.88 1.04-1.22 1.82-.91.79.32 1.04 1.05.69 1.93m-.79-1.67c-.56-.23-1.08.04-1.38.78-.3.73-.12 1.29.44 1.51.56.23 1.09-.04 1.38-.77.31-.73.12-1.29-.44-1.52M79.02 237.49c.05-.11.14-.17.24-.17l.04.02c.12.24.24.35.42.43.3.13.58-.07.81-.6l.17-.39-.76-.33.09-.22c.01-.02.03-.03.05-.02l.73.31.91-2.12c-.15-.08-.35-.21-.34-.23.02-.04.06-.11.1-.15l.97.42c-.01.06-.04.16-.07.17-.02.01-.2-.02-.28-.03-.03-.01-.06 0-.08.04-.07.15-.18.4-.24.52l-.66 1.52.47.2c.02.01-.05.15-.08.19-.1-.03-.31-.09-.49-.13l-.02-.01-.1.23c-.14.33-.3.55-.49.69-.3.24-.7.27-1.07.11-.27-.11-.4-.28-.32-.45M78.92 232.96l-1.63 3.46c-.05.1-.07.15.02.21l.19.14a.5.5 0 0 1-.07.16c-.15-.01-.44-.09-.59-.14l-.07-.08.51-1.08.34-.69-.04-.02c-.36.2-.79.2-1.16.03-.61-.29-.78-.93-.42-1.7.46-.97 1.32-1.24 2.17-.84.32.16.59.38.75.55m-1.02-.36a.95.95 0 0 0-.69-.07c-.23.07-.57.25-.86.87s-.25 1.06.27 1.31c.3.14.64.16 1.13-.08l.74-1.58c-.16-.18-.38-.35-.59-.45M74.81 231.14c-.31-.16-.6-.23-.88-.21l-.01-.16c.36-.13.78-.04 1.13.14.73.37.93 1.09.54 1.88-.45.89-1.21 1.19-1.94.82-.33-.17-.55-.44-.61-.76-.04-.24.01-.47.14-.72.06-.12.14-.27.21-.36l1.84.93.03-.07c.25-.51.28-1.13-.45-1.49m-1.28 1.01-.06.11c-.24.48-.11.89.34 1.12.54.27 1.03-.03 1.28-.44zM71.53 233.62c-.07.14-.25.2-.4.12a.3.3 0 0 1-.13-.4c.08-.14.23-.17.41-.14.12.13.19.27.12.42m.69-.9c-.15-.03-.46-.12-.6-.18l-.07-.08 1.22-2.32c-.16-.11-.3-.22-.29-.24.02-.04.07-.1.12-.14l.92.48c-.02.06-.06.16-.09.17-.02.01-.21-.04-.29-.06-.03-.01-.06-.01-.08.03-.08.14-.21.38-.28.5l-.69 1.32c-.05.09-.08.14.01.21l.21.16c-.02.04-.05.1-.09.15M69.37 228.19c.02-.04.07-.1.11-.14l.87.48c-.01.06-.06.15-.09.16-.02.01-.15-.02-.28-.06-.03-.01-.06-.01-.08.03-.08.14-.22.37-.29.5l-.5.9c-.16.29-.3.62.19.89.31.17.73.21 1.19.05l.89-1.61c-.15-.11-.28-.22-.27-.24.02-.04.07-.1.12-.13l.87.48c-.02.06-.06.15-.09.16-.02.01-.2-.04-.28-.06-.03-.01-.06-.01-.08.03-.08.14-.22.37-.29.5l-.72 1.31c-.05.09-.08.14.01.21l.18.15c-.01.05-.04.11-.08.15-.15-.03-.44-.12-.58-.18l-.07-.08.23-.41-.02-.01c-.38.13-.89.12-1.26-.09a.86.86 0 0 1-.44-.59c-.05-.26.07-.47.22-.75l.78-1.42c-.12-.1-.25-.21-.24-.23M65.46 228.72c.06.03.22.13.4.25-.06-.23-.02-.49.12-.74.33-.56.94-.64 1.48-.33.15.09.28.2.37.33.17-.08.27-.18.31-.26.1-.18-.06-.31-.25-.44l-.5-.36c-.48-.35-.82-.68-.55-1.13.2-.35.58-.45.94-.44.39.02.68.14.97.3.68.4.9.81.64 1.25-.21.36-.57.43-.86.42l-.02.03c.08.13.09.26.02.39-.06.11-.23.27-.42.35l-.16.07c.13.28.13.61-.06.93-.33.56-.94.63-1.47.32q-.195-.12-.33-.27l-.95-.56.1-.18c.03-.04.11.01.22.07m1.87-.59c-.38-.22-.81-.17-1.06.27-.25.43-.09.83.29 1.05.37.22.79.16 1.04-.27.26-.43.1-.83-.27-1.05m1.28-1.99c-.57-.33-1.17-.4-1.39-.02-.19.33.1.57.48.85l.64.46c.33-.04.57-.15.71-.38l.06-.1c.12-.22-.02-.53-.5-.81M62.4 223.93c.02-.03.08-.09.13-.12l.84.54c-.01.06-.06.14-.11.16a1 1 0 0 1-.22-.07c-.02-.01-.04 0-.04.03 0 .06-.01.19 0 .28l.08 1.25.63-.08.48-.75c-.14-.12-.26-.24-.25-.26.02-.03.08-.09.12-.13l.84.54c-.02.06-.07.15-.1.16-.02 0-.2-.05-.27-.08-.03-.01-.06-.01-.08.02-.09.13-.24.36-.32.48l-1.62 2.53c-.06.09-.09.14 0 .21l.18.17c-.02.05-.05.11-.09.15-.15-.04-.43-.14-.56-.22l-.06-.09 1.58-2.47-1.71.23c.12.09.28.23.27.25-.03.04-.08.11-.13.14l-.85-.55c0-.05.08-.14.12-.16.08.02.19.06.23.08.03.01.1.01.15 0 .12-.01.48-.07.66-.09l.5-.06-.14-1.64c-.01-.18-.03-.25-.06-.28-.06-.02-.21-.15-.2-.17M59.9 226.74a.3.3 0 0 1-.41.08.293.293 0 0 1-.08-.41c.09-.13.25-.15.42-.1.1.15.16.3.07.43m.78-.82a4 4 0 0 1-.58-.24l-.06-.09 1.46-2.18c-.15-.12-.27-.25-.26-.27.02-.03.08-.09.13-.12l.86.57c-.02.05-.07.15-.1.15-.02 0-.2-.06-.29-.09-.03-.01-.06-.01-.08.02-.1.13-.25.35-.33.47l-.83 1.24c-.06.09-.09.13-.01.21l.19.18c-.02.06-.05.12-.1.15M58.31 221.13c.02-.03.08-.09.13-.12l.82.57c-.02.06-.07.15-.11.15-.02 0-.15-.04-.27-.09-.03-.01-.06-.01-.08.02-.1.13-.25.35-.34.46l-.59.84c-.19.27-.37.59.1.91.29.2.7.28 1.18.18l1.05-1.51c-.14-.12-.25-.25-.24-.27.02-.03.08-.09.13-.12l.82.57c-.02.05-.07.15-.11.15-.02 0-.19-.06-.27-.09-.03-.02-.06-.01-.08.02-.1.13-.25.35-.34.46l-.85 1.22c-.06.09-.09.13-.01.21l.16.17c-.02.05-.05.11-.1.14-.15-.04-.42-.16-.56-.24l-.06-.09.27-.39-.02-.01c-.4.09-.9.02-1.25-.22a.86.86 0 0 1-.38-.63c-.02-.27.11-.46.3-.72l.92-1.33c-.12-.1-.24-.22-.22-.24M55.69 219.02c.15.05.37.16.48.24.06.04.06.12-.01.22l-.16.22c.08-.02.16-.04.27-.05.2-.02.47-.03.82.23.48.36.74 1.03.15 1.83-.55.75-1.42 1.01-2.1.51-.24-.18-.44-.43-.49-.66l-.35.51-.34.47c-.07.09-.1.13-.02.21l.18.18c-.02.05-.06.1-.1.13a3 3 0 0 1-.58-.27l-.05-.09 2.39-3.24c.04-.06.04-.09 0-.13-.06-.05-.13-.12-.19-.16-.01-.02.05-.11.1-.15m1.14 1.04c-.24-.18-.48-.2-.64-.21-.09-.01-.19.01-.28.02l-1 1.35c0 .14.02.25.04.37.07.14.17.27.34.39.6.44 1.23.06 1.61-.45.47-.63.37-1.14-.07-1.47M52.57 220.08c-.09-.01-.35-.16-.44-.21-.17.11-.36.24-.52.32l-.13-.1.38-.48-.7-.56.15-.19c.01-.02.04-.02.06-.01l.67.53 1.28-1.62c.14-.18.12-.28-.08-.44-.14-.11-.32-.21-.47-.27.01-.05.04-.12.08-.17.26.02.54.17.76.34.15.12.3.34.07.64l-1.36 1.72.37.29c0 .04-.07.19-.12.21M51.6 217.59c-.6.72-1.36.84-2.01.3s-.67-1.3-.07-2.02c.6-.73 1.36-.85 2.01-.32.65.54.67 1.31.07 2.04m-.25-1.82c-.47-.39-1.04-.28-1.55.33-.5.61-.5 1.19-.03 1.58s1.05.29 1.55-.32c.51-.62.49-1.2.03-1.59M47.82 214.42c-.63.7-1.39.79-2.02.23s-.62-1.32 0-2.03c.63-.71 1.39-.8 2.02-.24.64.56.63 1.34 0 2.04m-.18-1.83c-.46-.41-1.03-.32-1.57.28-.53.59-.54 1.17-.09 1.58.46.41 1.04.33 1.56-.26.54-.61.55-1.2.1-1.6M44.63 213.36c-.09-.02-.33-.18-.42-.24-.17.09-.37.21-.55.27l-.12-.11.42-.45-.66-.61.16-.17q.03-.03.06 0l.63.58 1.41-1.51c.15-.17.14-.27-.04-.44-.13-.12-.3-.24-.45-.31.01-.05.05-.12.09-.16.26.04.52.21.73.4.14.13.28.37.01.65l-1.5 1.61.34.32c.02.01-.06.16-.11.17M42.59 207.84c.03-.03.1-.08.15-.1l.72.7c-.03.05-.1.13-.13.13-.02 0-.14-.06-.25-.13a.075.075 0 0 0-.09 0c-.12.11-.31.3-.41.41l-.72.74c-.23.23-.46.52-.06.91.25.25.65.4 1.14.37l1.28-1.32c-.12-.15-.21-.28-.19-.3.03-.03.1-.08.15-.1l.72.7c-.03.05-.1.13-.13.13-.02 0-.18-.09-.25-.13a.075.075 0 0 0-.09 0c-.12.11-.31.3-.41.4l-2.09 2.15c-.08.08-.11.12-.05.21l.14.2c-.03.05-.07.1-.12.12-.14-.06-.39-.23-.51-.33l-.04-.1 1.38-1.42-.02-.02c-.4.03-.89-.12-1.2-.42-.19-.19-.29-.42-.26-.68.02-.27.18-.44.41-.67l1.13-1.16c-.12-.14-.21-.28-.2-.29M41.21 206.49c-.24-.25-.49-.41-.77-.48l.04-.16c.38 0 .75.22 1.02.5.57.58.53 1.33-.1 1.95-.71.69-1.53.73-2.1.14-.26-.26-.38-.59-.33-.92.04-.24.16-.44.36-.64.1-.1.22-.21.31-.27l1.44 1.47.05-.05c.43-.39.65-.96.08-1.54m-1.54.54-.09.09c-.39.38-.39.8-.04 1.17.43.44.98.31 1.35 0zM36.97 205.6c.1-.1.23-.13.33-.09l.03.03c-.01.11-.01.25.01.34.24.13.58.26.95.25l1.34-1.25c-.11-.14-.24-.34-.22-.35.03-.03.1-.07.15-.09l.73.77c-.03.05-.1.13-.14.13-.02 0-.18-.1-.25-.14-.03-.02-.06-.03-.09 0-.12.11-.32.29-.43.38l-1.09 1.02c-.08.07-.12.11-.06.2l.12.2c-.03.05-.07.09-.13.12a3.4 3.4 0 0 1-.49-.35l-.04-.1.36-.34-.01-.01c-.3.01-.86-.1-1.1-.35-.11-.14-.09-.26.03-.37M34.65 201.3c.75-.66 1.65-.63 2.14-.07.22.25.34.55.35.77l.96-.84c-.1-.14-.22-.34-.21-.36.03-.03.1-.07.15-.09l.7.8c-.04.05-.11.12-.14.12-.02 0-.17-.1-.24-.15-.03-.02-.06-.03-.09 0-.13.1-.33.27-.44.37l-2.17 1.9c-.08.07-.12.11-.06.2l.12.21c-.03.05-.08.09-.13.11a3.4 3.4 0 0 1-.48-.37l-.03-.1.27-.24c-.06 0-.13 0-.2-.02-.22-.04-.49-.12-.77-.44-.41-.48-.44-1.18.27-1.8m2.19.58c-.03-.13-.12-.31-.28-.49-.41-.47-1.13-.3-1.63.14-.58.5-.62 1.01-.22 1.46.2.23.43.31.67.35.05.01.12.02.19.02l1.26-1.1c.03-.13.03-.25.01-.38M34.39 198.89q-.33-.405-.72-.54l.05-.15c.38.03.73.28.98.58.52.62.42 1.37-.26 1.94-.76.63-1.58.6-2.1-.03-.23-.28-.33-.62-.25-.94.06-.24.2-.43.41-.61.11-.09.24-.19.33-.24l1.32 1.58.06-.05c.43-.36.7-.92.18-1.54m-1.58.41-.1.08c-.41.35-.46.77-.13 1.16.39.47.95.38 1.35.11zM32.43 198.42c-.74.58-1.5.54-2.03-.12-.52-.66-.39-1.41.35-2s1.51-.55 2.03.11c.53.66.39 1.42-.35 2.01m.14-1.83c-.38-.48-.96-.5-1.59 0-.62.49-.73 1.06-.36 1.54.38.48.97.5 1.58.01.63-.5.75-1.08.37-1.55M28.65 193.72c.8-.6 1.7-.5 2.14.09.2.27.3.57.3.79l1.02-.77c-.09-.15-.2-.36-.18-.37.03-.02.1-.06.16-.08l.64.85c-.04.04-.12.12-.15.11-.02 0-.17-.11-.23-.17-.03-.02-.05-.03-.09-.01-.13.09-.35.25-.47.33l-2.31 1.73c-.08.06-.13.1-.08.2l.1.21c-.03.04-.08.08-.14.1-.12-.09-.35-.29-.45-.4l-.03-.1.29-.22c-.06 0-.13-.01-.2-.03-.21-.05-.48-.15-.74-.5-.36-.5-.33-1.2.42-1.76m2.14.75c-.02-.13-.09-.32-.24-.51-.38-.5-1.1-.38-1.64.02-.61.46-.7.96-.33 1.44.18.25.4.34.64.4.05.01.12.03.19.03l1.34-1c.04-.13.05-.26.04-.38M29.43 192.44c-.02 0-.18-.13-.24-.19-.02-.03-.05-.03-.09-.01-.14.09-.36.24-.47.33l-2.43 1.75c-.09.06-.13.09-.09.2l.12.24c-.03.04-.09.08-.14.1-.12-.08-.37-.32-.46-.43l-.02-.1 3.35-2.41c-.09-.17-.17-.33-.15-.34.03-.02.11-.06.16-.07l.6.84c-.02.03-.11.1-.14.09M27.68 190.01c-.2-.29-.42-.49-.67-.61l.07-.15c.37.06.7.35.92.67.46.67.3 1.4-.43 1.91-.82.56-1.63.46-2.1-.22-.21-.3-.27-.65-.17-.96.08-.23.23-.41.47-.57.11-.08.25-.17.36-.21l1.17 1.7.06-.04c.46-.32.78-.85.32-1.52m-1.61.27-.1.07c-.44.31-.52.72-.23 1.14.35.5.92.47 1.33.23zM24.88 188.03c-.79.5-1.55.38-2.01-.33-.45-.71-.24-1.44.56-1.95s1.56-.39 2.01.32.24 1.45-.56 1.96m.33-1.81c-.33-.51-.91-.59-1.58-.16-.67.42-.84.98-.52 1.49.33.51.91.6 1.58.17s.84-.99.52-1.5M21.02 184.2c.12-.07.26-.08.34-.02l.02.04c-.03.1-.06.25-.06.34.21.18.51.37.88.44l1.57-.95c-.08-.16-.16-.38-.14-.39.03-.02.11-.05.17-.06l.55.91c-.04.04-.13.1-.16.1a3 3 0 0 1-.21-.19c-.02-.03-.05-.04-.08-.02-.14.08-.37.21-.5.29l-1.27.77c-.09.05-.14.08-.1.19l.08.22q-.06.06-.15.09c-.11-.1-.32-.32-.41-.44l-.02-.11.43-.26-.01-.01c-.3-.05-.82-.27-1-.57-.11-.17-.07-.28.07-.37M20.05 182.72c-.08-.04-.26-.28-.33-.36-.19.04-.42.08-.61.1l-.08-.14.54-.3-.44-.78.21-.12c.02-.01.04 0 .06.02l.42.75 1.8-1.02c.2-.11.22-.22.09-.43-.09-.15-.21-.32-.34-.43.03-.04.08-.1.13-.13.23.12.43.35.57.6.09.16.15.43-.18.62l-1.91 1.08.23.41c.01.02-.11.13-.16.13M20.09 180.06c-.83.45-1.58.27-1.98-.48-.4-.74-.13-1.46.7-1.9.83-.45 1.58-.28 1.98.46.4.75.13 1.47-.7 1.92m.46-1.78c-.29-.54-.86-.66-1.57-.28-.7.37-.91.92-.62 1.45.29.54.86.66 1.56.29.7-.38.91-.93.63-1.46M17.9 172.85c.12.06.21.14.29.31s.02.31-.14.39l-.14.07c.05.01.1.02.16.04.22.07.52.19.71.58s.18.82-.26 1.03c-.32.16-.67.12-1-.13-.23-.18-.54-.52-.79-.92l-.26.13c-.3.15-.5.42-.28.87.12.23.31.39.39.41.08-.01.23-.08.32-.12.08.05.17.17.22.26.04.08.01.13-.06.17-.09.05-.23.04-.38-.01-.24-.08-.6-.3-.8-.7-.15-.3-.15-.57-.04-.78.12-.22.35-.35.53-.44l1.36-.67c.1-.05.18-.11.12-.23a.8.8 0 0 0-.1-.15c.02-.04.1-.09.15-.11m.57 1.49c-.13-.27-.36-.43-.56-.52-.06-.02-.12-.05-.18-.07l-.8.39c.2.34.49.64.68.77s.45.21.69.09c.25-.12.33-.35.17-.66M16.34 169.73c.04-.02.12-.04.17-.04l.42.91c-.05.04-.14.09-.17.08a1.6 1.6 0 0 1-.19-.21c-.02-.03-.04-.04-.08-.03-.15.06-.39.17-.53.23l-.93.43c-.29.14-.61.32-.38.83.15.32.46.6.93.75l1.67-.77c-.06-.18-.09-.34-.07-.35.04-.02.12-.04.17-.04l.42.91c-.05.03-.14.09-.17.08-.02-.01-.14-.15-.19-.21-.02-.03-.05-.04-.08-.03-.15.06-.39.17-.53.23l-1.35.62c-.09.04-.15.07-.12.17l.06.23c-.04.04-.1.06-.16.07-.1-.11-.28-.35-.36-.49v-.11l.43-.2-.01-.02c-.39-.12-.79-.44-.96-.82a.85.85 0 0 1-.01-.73c.12-.24.33-.34.62-.47l1.47-.68c-.05-.16-.09-.33-.07-.34M12.64 170.59c-.14.06-.32 0-.38-.16-.07-.15 0-.32.15-.39.15-.06.29.01.41.14.01.18-.03.34-.18.41m1.1-.27c-.1-.12-.29-.38-.36-.52v-.11l2.41-1.05c-.06-.19-.09-.36-.07-.37.04-.02.12-.03.18-.03l.41.95c-.05.03-.14.09-.17.07-.02-.01-.14-.16-.19-.23-.02-.03-.04-.04-.08-.03-.15.06-.4.16-.53.22l-1.37.6c-.1.04-.15.07-.12.17l.06.25a.4.4 0 0 1-.17.08M13.74 163.44c.04-.01.12-.03.17-.03l.37.93c-.05.04-.14.08-.17.07-.02-.01-.1-.12-.18-.22-.02-.03-.04-.04-.08-.03-.15.06-.4.15-.54.2l-.95.38c-.36.14-.63.3-.44.77.12.29.37.56.77.72.08-.04.18-.08.27-.12l1.51-.61c-.05-.18-.08-.34-.05-.35.04-.02.12-.03.17-.03l.37.93c-.05.04-.14.08-.17.07-.02-.01-.1-.12-.18-.22-.02-.03-.04-.04-.08-.03-.15.06-.4.15-.54.2l-.95.38c-.36.14-.63.3-.44.77.12.3.39.57.8.72l1.76-.71c-.05-.18-.08-.35-.05-.35.04-.02.12-.03.18-.03l.37.93c-.05.03-.14.08-.17.07-.02-.01-.13-.15-.18-.22-.02-.03-.04-.04-.08-.03-.15.06-.4.15-.54.2l-1.38.56c-.1.04-.15.06-.13.17l.04.23c-.04.04-.1.06-.16.07-.1-.12-.27-.37-.33-.5v-.11l.39-.16-.01-.02a1.43 1.43 0 0 1-.83-.79c-.1-.25-.1-.49.03-.71.04-.07.08-.12.14-.16l-.02-.04c-.34-.13-.69-.41-.84-.79-.1-.26-.1-.5.03-.71.13-.22.35-.3.65-.43l1.51-.61c-.03-.18-.06-.35-.04-.36M12.83 160.6c.11.07.19.17.25.34s-.01.31-.18.38l-.15.05q.075.015.15.06c.21.09.5.25.65.66s.09.83-.37 1c-.34.12-.68.04-.98-.24-.21-.2-.48-.57-.69-1l-.27.1c-.31.11-.54.36-.37.83.09.25.26.42.34.45.08 0 .24-.05.33-.08.07.06.15.18.19.28.03.08-.01.13-.08.16-.1.04-.23.02-.38-.05-.23-.11-.57-.36-.72-.78-.11-.32-.09-.58.05-.78.15-.21.39-.31.57-.38l1.42-.52c.11-.04.19-.09.14-.22a.8.8 0 0 0-.08-.16c.04-.05.13-.09.18-.1m.41 1.53c-.1-.28-.31-.47-.5-.58-.05-.03-.11-.06-.17-.09l-.84.31c.16.35.42.69.59.84.18.15.43.26.68.17.26-.1.36-.32.24-.65M12.57 160.21c-.02-.01-.14-.18-.17-.25-.02-.03-.04-.05-.08-.03-.16.05-.41.13-.55.18l-2.83.98c-.1.04-.15.05-.14.17l.05.26c-.04.03-.11.06-.16.06-.09-.11-.26-.41-.32-.55l.01-.11 3.9-1.35c-.04-.19-.06-.36-.04-.37.04-.01.12-.02.18-.02l.34.98c-.06.03-.16.07-.19.05M12.16 158.48v.21c0 .03-.01.04-.04.04l-.63.21a.2.2 0 0 1-.05-.13l.25-.21c.15-.12.25-.36.1-.8-.15-.45-.43-.56-.71-.47-.3.1-.34.37-.35.66l-.02.48c-.01.38-.15.75-.54.88-.34.11-.82-.02-1.02-.65-.08-.26-.09-.45-.09-.67l.02-.23c0-.03.01-.04.03-.04l.53-.17c.02.03.04.07.04.12l-.2.21c-.11.1-.24.3-.1.73.13.4.38.48.63.41.29-.1.33-.33.34-.64l.01-.47c.02-.46.14-.77.55-.9.37-.12.88-.01 1.13.78.1.22.12.47.12.65M9.62 155.14c-.9.26-1.59-.07-1.83-.89-.23-.81.18-1.45 1.08-1.71.91-.26 1.6.06 1.84.87.23.82-.18 1.47-1.09 1.73m.82-1.64c-.17-.58-.7-.82-1.47-.6-.76.22-1.08.7-.92 1.28.17.58.7.83 1.46.61.78-.22 1.1-.71.93-1.29M7.9 149.34c.97-.25 1.76.18 1.94.89.08.33.06.64-.03.85l1.24-.32c-.03-.17-.05-.41-.02-.41.04-.01.12-.02.18-.01l.27 1.03c-.05.03-.15.06-.18.05-.02-.01-.11-.17-.15-.24-.01-.03-.04-.05-.08-.04-.16.04-.42.1-.56.13l-2.79.72c-.1.03-.16.04-.15.15l.01.24c-.05.03-.11.05-.17.04-.08-.13-.22-.4-.27-.54l.01-.11.35-.09a.8.8 0 0 1-.17-.11c-.18-.13-.38-.32-.49-.74-.14-.62.15-1.26 1.06-1.49m1.69 1.51c.03-.13.04-.33-.03-.56-.16-.61-.87-.78-1.52-.61-.74.19-1.01.62-.86 1.21.08.3.24.47.44.61.04.03.1.07.16.1l1.62-.42c.09-.1.16-.21.19-.33M7.14 146.11c.98-.23 1.75.22 1.92.94.08.33.04.64-.05.84l1.24-.29c-.02-.17-.04-.41-.01-.41.04-.01.12-.02.18 0l.24 1.03c-.05.02-.15.06-.18.04-.02-.01-.1-.17-.14-.25-.01-.03-.04-.05-.08-.04-.16.03-.42.09-.56.12l-2.81.65c-.1.02-.16.04-.15.15l.01.24c-.05.03-.11.04-.17.04-.08-.13-.21-.4-.25-.55l.02-.1.36-.08c-.05-.03-.11-.06-.17-.11-.17-.13-.37-.33-.47-.75-.15-.63.15-1.26 1.07-1.47m1.65 1.55c.04-.13.04-.33-.01-.56-.14-.61-.85-.8-1.51-.64-.75.17-1.02.59-.88 1.19.07.3.23.48.42.62.04.03.1.07.16.11L8.6 148c.09-.12.15-.23.19-.34M7.14 145.47c-.92.19-1.58-.2-1.75-1.03-.17-.82.29-1.43 1.21-1.62s1.59.19 1.76 1.01c.17.83-.3 1.45-1.22 1.64m.95-1.57c-.12-.6-.63-.88-1.42-.71-.77.16-1.13.62-1.01 1.21.12.6.64.88 1.41.72.78-.17 1.14-.63 1.02-1.22M7.85 141.8l-.03.21c-.01.03-.02.03-.04.04l-.66.12c-.03-.04-.03-.09-.03-.14l.27-.18c.17-.1.3-.32.21-.78-.08-.47-.35-.62-.64-.57-.31.06-.38.32-.44.61l-.09.47c-.06.37-.25.72-.66.79-.35.06-.81-.14-.92-.78-.05-.27-.03-.46 0-.67l.05-.23c.01-.03.02-.03.04-.04l.55-.1c.02.03.03.08.02.13l-.23.18c-.13.09-.28.26-.2.71.07.42.31.53.56.49.3-.05.37-.28.43-.59l.12-.47c.08-.46.24-.74.67-.81.38-.07.87.12 1.02.93.04.26.02.5 0 .68M3.57 139.98a.285.285 0 0 1-.33-.25c-.03-.17.08-.31.24-.34s.28.08.36.24c-.03.18-.11.32-.27.35m1.14.01c-.07-.13-.18-.44-.22-.59l.02-.1 2.59-.42c-.01-.19 0-.37.02-.37.04-.01.12 0 .18.01l.17 1.02c-.06.02-.16.05-.18.03-.02-.01-.1-.19-.13-.27-.01-.03-.03-.05-.07-.05-.16.02-.43.06-.57.08l-1.47.24c-.1.02-.16.03-.16.14v.26c-.06.01-.12.03-.18.02M4.51 138.64c-.06-.07-.15-.35-.18-.45-.19-.04-.42-.07-.6-.13l-.03-.16.61-.09-.13-.89.24-.04c.02 0 .04.01.05.03l.13.85 2.04-.3c.22-.03.28-.12.24-.37-.03-.17-.09-.37-.16-.52.04-.03.11-.06.17-.07.17.19.28.49.32.77.03.18-.01.46-.39.52l-2.17.32.07.46c-.01.03-.16.09-.21.07M6.53 134.6c-.04-.35-.14-.62-.32-.85l.13-.1c.3.22.47.63.52 1.02.1.81-.38 1.38-1.26 1.49-.98.12-1.66-.34-1.76-1.16-.05-.36.06-.7.29-.93.18-.17.39-.25.68-.29.14-.02.3-.03.41-.02l.26 2.04.08-.01c.54-.06 1.07-.38.97-1.19m-1.56-.49-.13.02c-.53.07-.8.4-.73.91.08.6.6.84 1.08.82zM6.2 131.45c-.02-.01-.09-.18-.11-.26-.02-.06-.04-.08-.08-.08-.16 0-.5.04-.58.04l-2.73.26c-.01.21-.04.4-.06.4-.05 0-.13 0-.18-.02l-.1-1.09c.06-.02.15-.04.18-.02s.09.18.11.26c.02.06.04.08.08.09.16 0 .5-.04.58-.04l2.73-.26c.01-.21.04-.4.06-.4.05 0 .13-.01.18.02l.1 1.08c-.06.03-.15.05-.18.02M2.19 126.24c.02.02.08.18.11.26.02.06.04.08.08.08.16 0 .5-.02.6-.03l1.16-.08c.36-.03 1.05-.06 1.39-.08l.46-.01.01.17-3.04 2.8c.39-.04.84-.08 1.1-.1l1.85-.13c.01-.21.05-.39.07-.39.05 0 .13 0 .18.02l.07 1.01c-.06.03-.15.04-.18.01-.02-.02-.08-.18-.11-.25-.02-.06-.04-.08-.08-.09-.16 0-.5.02-.6.03l-1.2.08c-.35.03-.99.06-1.38.08l-.14.12-.05.35c-.04.03-.15.03-.21.01l-.04-.59 3.09-2.84c-.4.04-.92.08-1.18.1l-1.81.13c-.01.22-.05.39-.07.39-.05 0-.13 0-.18-.02l-.07-1.01c.04-.03.14-.04.17-.02M5.59 121.82c.05 0 .13.01.18.03l.04 1.08c-.06.02-.15.03-.18.01-.02-.02-.08-.18-.1-.26-.02-.06-.03-.09-.07-.08-.16 0-.5.01-.59.01l-.96.04.09 2.2 1.61-.06c.02-.21.07-.39.08-.39.05 0 .13 0 .18.02l.04 1.08c-.06.03-.15.04-.18.01-.02-.02-.08-.18-.1-.26-.02-.06-.03-.09-.07-.09-.16 0-.5.01-.59.01l-2.74.11c-.02.21-.07.39-.08.39-.05 0-.13-.01-.18-.03l-.04-1.08c.06-.02.15-.04.18-.01.02.02.08.18.1.26.02.06.03.09.07.08.16 0 .5-.01.59-.01l.89-.03-.09-2.2-1.53.06c-.02.21-.07.39-.08.39-.05 0-.13 0-.18-.02L1.84 122c.06-.03.15-.04.18-.01.02.02.08.18.1.26.02.06.03.09.07.09.16.01.5-.01.59-.01l2.74-.11c0-.22.05-.4.07-.4M4.19 120.96 2.1 121c-.03.21-.08.39-.09.39-.05 0-.13 0-.18-.03l-.02-1.08c.06-.02.15-.03.18 0 .02.02.07.18.09.27.02.06.03.09.07.09h.59l1.44-.02c.89-.01 1.35-.43 1.34-1.23-.01-.88-.54-1.11-1.31-1.1l-2.15.03c-.03.21-.07.39-.09.39-.05 0-.13 0-.18-.03l-.02-1.01c.06-.02.15-.03.18 0 .02.02.07.18.09.27.01.06.03.09.07.09.16.01.5 0 .6 0l1.44-.02c1.17-.02 1.67.48 1.69 1.47.02 1.05-.6 1.47-1.65 1.48M3.42 112.8H4.8c.09 0 .44 0 .6-.01.04-.01.05-.03.07-.09.02-.08.06-.24.09-.26.03-.03.13-.02.19 0v1.08c-.05.02-.13.03-.18.03-.02 0-.07-.19-.1-.4H3.55c-.31 0-.7-.01-1.08-.02l3.27 1.52v.24L2.5 116.4c.4-.01.87-.02 1.11-.02h1.86c.03-.21.08-.39.1-.39.05 0 .13.01.18.03v1.01c-.06.02-.15.03-.18 0a1.5 1.5 0 0 1-.09-.26c-.02-.06-.03-.09-.07-.09-.16-.01-.5-.01-.6-.01h-1.2c-.36 0-1.05-.01-1.44-.02l-.08.05-.08.41c-.05.02-.15.02-.21 0v-.78l3.44-1.61-3.44-1.6v-.75c.06-.02.14-.03.19-.02.02.04.06.24.1.39l.1.08c.39-.02.85-.02 1.23-.02M5.74 108.27v1.13c-.06.02-.13.03-.19.03-.02 0-.08-.23-.12-.42l-.97.36v1.66l.99.36c.03-.2.09-.42.1-.42.05 0 .13.01.18.03v1.06c-.06.02-.16.03-.19 0-.02-.02-.06-.16-.08-.23-.01-.04-.02-.06-.06-.08-.1-.06-.66-.28-.93-.38l-2.68-1.04a1 1 0 0 0-.1-.19.14.14 0 0 1 0-.09l2.84-1.11a17 17 0 0 0 .84-.34c.05-.02.07-.05.09-.1.02-.08.06-.21.08-.24.05-.02.14-.01.2.01m-1.52 1.19-.9.34-1.07.38v.06l1.06.37.9.33v-1.48zM1.98 104.08c.02.02.07.19.09.27.02.06.03.09.07.09.16.01.5.01.6.01H3.9c.37 0 1.06.01 1.39.02l.46.02v.17l-3.24 2.57c.39-.01.85-.02 1.1-.02h1.86c.03-.21.08-.39.1-.39.05 0 .13.01.18.03v1.01c-.06.02-.15.03-.18 0a1.5 1.5 0 0 1-.09-.26c-.02-.06-.03-.09-.07-.09-.16-.01-.5-.01-.6-.01h-1.2c-.35 0-.99-.01-1.38-.02l-.15.11-.08.34c-.05.02-.15.02-.21 0v-.59l3.28-2.62c-.41.01-.93.01-1.19.01h-1.8c-.03.21-.08.39-.1.39-.05 0-.13-.01-.18-.03v-1.01c.06-.01.15-.02.18 0M5.56 103.54c-.02-.02-.07-.19-.09-.27-.02-.06-.03-.09-.07-.09-.16-.01-.5-.01-.59-.01H2.08c-.03.21-.08.39-.1.39-.05 0-.13-.01-.18-.04v-1.1c.06-.02.15-.02.18 0 .02.02.07.19.09.27.02.06.03.09.07.09.16.01.5.01.59.01h2.74c.03-.21.08-.39.1-.39.05 0 .13.01.18.04v1.09c-.07.03-.16.04-.19.01M1.8 101.63v-2.66c0-.09-.01-.19-.03-.27l.86-.07c.03.05.05.13.05.19 0 .02-.43.16-.61.21v.46l-.02.63h3.41c.03-.2.08-.42.1-.42.05 0 .13.01.18.03v1.15c-.06.02-.15.03-.18 0-.02-.02-.07-.22-.09-.3-.01-.06-.03-.09-.07-.09-.16-.01-.5-.01-.59-.01H2.05l.02.63v.46c.19.05.61.18.61.2 0 .06-.02.15-.05.19l-.86-.07c.02-.07.03-.17.03-.26M5.56 97.15c-.02-.02-.07-.23-.09-.31-.01-.06-.03-.09-.07-.09-.16-.01-.5-.01-.59-.01h-.6l-1.23.78-.8.52c-.05.03-.1.08-.12.15l-.06.2c-.05.02-.15.01-.19-.02v-1.19c.06-.03.13-.03.18-.03.02 0 .08.27.12.45h.06c.07-.03.45-.24.7-.39l.54-.32.5-.31v-.08l-.53-.3-.56-.3c-.27-.16-.58-.32-.64-.34h-.1c-.03.18-.09.42-.12.42-.05 0-.12-.01-.17-.03v-1.11c.05-.03.14-.02.19 0l.06.22c.02.05.08.09.13.12.11.07.55.32.77.45l1.23.74h1.28c.03-.2.08-.44.1-.44.05 0 .13.01.18.03v1.18c-.05.03-.14.04-.17.01M5.52 94.74c-.17 0-.32-.13-.32-.31s.15-.31.32-.31.27.13.35.31c-.08.17-.17.31-.35.31M5.67 89.29c.08.1.12.22.12.41s-.12.29-.3.29h-.15V90c.04.03.08.06.12.1.17.16.38.41.38.84s-.2.81-.69.81c-.36 0-.65-.19-.84-.56-.13-.26-.26-.7-.3-1.18h-.29c-.33 0-.63.16-.63.65 0 .26.1.49.17.54.08.03.24.03.34.03.05.08.08.23.08.33 0 .09-.05.12-.13.12-.1 0-.23-.06-.34-.17-.18-.18-.41-.53-.41-.98 0-.34.12-.58.31-.72.21-.15.47-.16.67-.16H5.3c.12 0 .21-.02.21-.16 0-.08-.01-.14-.02-.18.04-.01.14-.02.18-.02m-.14 1.58c0-.3-.13-.54-.27-.71a1 1 0 0 0-.13-.14h-.89c.03.39.16.79.27.99.12.2.31.39.58.39.28 0 .44-.17.44-.53M5.56 88.82c-.02-.02-.07-.21-.08-.29-.01-.03-.02-.06-.06-.06-.16-.01-.43-.01-.57-.01h-3c-.11 0-.16 0-.19.11l-.04.27c-.05.02-.12.02-.17 0-.05-.14-.11-.48-.12-.62l.04-.1h4.12c.02-.19.06-.37.08-.37.04 0 .12.02.17.03v1.03c-.06.03-.16.03-.18.01M5.56 87.24c-.02-.02-.07-.21-.08-.29-.01-.03-.02-.06-.06-.06-.16-.01-.43-.01-.57-.01h-3c-.11 0-.16 0-.19.11l-.04.27c-.05.02-.12.02-.17 0-.05-.14-.11-.48-.12-.62l.04-.1h4.12c.02-.19.06-.37.08-.37.04 0 .12.02.17.03v1.03c-.06.03-.16.03-.18.01M4.18 81.27c1 0 1.66.61 1.66 1.35 0 .34-.1.64-.24.81h1.28c.02-.17.06-.41.08-.41.04 0 .12.01.17.04v1.06c-.06.01-.16.02-.19 0-.02-.02-.06-.19-.08-.27-.01-.04-.02-.06-.06-.06-.16-.01-.43-.01-.57-.01H3.35c-.1 0-.16 0-.18.11l-.05.23c-.05.02-.12.02-.17 0a3 3 0 0 1-.12-.59l.04-.1h.37c-.05-.04-.09-.09-.14-.15-.14-.17-.29-.41-.29-.84-.01-.62.43-1.17 1.37-1.17m1.27 1.89c.06-.12.12-.31.12-.55 0-.63-.65-.97-1.32-.97-.77 0-1.13.35-1.13.96 0 .31.12.52.27.7.03.04.08.09.13.14h1.67c.11-.09.19-.18.26-.28M5.53 79.27c0-.35-.06-.64-.21-.88l.14-.08c.27.26.38.68.38 1.07 0 .81-.55 1.32-1.44 1.32-.99 0-1.6-.54-1.6-1.37 0-.37.15-.68.41-.88.2-.15.42-.2.71-.2.14 0 .3.01.41.03v2.06h.07c.57-.01 1.13-.26 1.13-1.07m-1.48-.69h-.13c-.54 0-.84.3-.84.81 0 .61.49.9.97.95zM4.32 77.68c-.94 0-1.51-.51-1.51-1.36 0-.84.57-1.35 1.51-1.35s1.52.5 1.52 1.35-.58 1.36-1.52 1.36m1.24-1.35c0-.61-.45-.99-1.25-.99-.79 0-1.24.38-1.24.98 0 .61.45.99 1.24.99.81 0 1.25-.38 1.25-.98M4.18 71.65c1 0 1.66.61 1.66 1.35 0 .34-.1.64-.24.81h1.28c.02-.17.06-.41.08-.41.04 0 .12.01.17.04v1.06c-.06.01-.16.02-.19 0-.02-.02-.06-.19-.08-.27-.01-.04-.02-.06-.06-.06-.16-.01-.43-.01-.57-.01H3.35c-.1 0-.16 0-.18.11l-.05.23c-.05.02-.12.02-.17 0a3 3 0 0 1-.12-.59l.04-.1h.37c-.05-.04-.09-.09-.14-.15-.15-.16-.3-.4-.3-.83 0-.64.44-1.18 1.38-1.18m1.27 1.88c.06-.12.12-.31.12-.55 0-.63-.65-.97-1.32-.97-.77 0-1.13.35-1.13.96 0 .31.12.52.27.7.03.04.08.09.13.14h1.67c.11-.08.19-.17.26-.28M5.56 71.06c-.02-.02-.07-.21-.08-.29-.01-.03-.02-.06-.06-.06-.17-.01-.44-.01-.58-.01H1.85c-.11 0-.16 0-.19.11l-.04.27c-.05.02-.12.02-.17 0-.05-.14-.11-.48-.12-.62l.04-.1h4.12c.02-.19.06-.37.08-.37.04 0 .12.02.17.03v1.03c-.06.02-.16.03-.18.01M5.53 68.03c0-.35-.06-.64-.21-.88l.14-.08c.27.26.38.68.38 1.07 0 .81-.55 1.32-1.44 1.32-.99 0-1.6-.54-1.6-1.37 0-.37.15-.68.41-.88.2-.14.42-.2.71-.2.14 0 .3.01.41.03v2.06h.07c.57-.01 1.13-.26 1.13-1.07m-1.48-.69h-.13c-.54 0-.84.3-.84.81 0 .61.49.9.97.95zM3.19 65.72c.17 0 .28.13.35.31-.08.18-.18.31-.35.31s-.31-.13-.31-.31.14-.31.31-.31m2.59.24c-.1.07-.15.25-.23.44-.16 0-.38-.07-.38-.3 0-.26.2-.38.39-.44.38-.12.94.02 1.28.63-.03.09-.14.17-.17.12-.26-.41-.6-.54-.89-.45M5.57 60.41c.04 0 .12.02.17.04v1c-.06.01-.16.02-.19 0-.02-.02-.05-.15-.08-.27-.01-.04-.02-.06-.06-.06-.16-.01-.43-.01-.57-.01H3.81c-.33 0-.69.03-.69.59 0 .35.17.75.53 1.07h1.83c.02-.19.06-.35.08-.35.04 0 .12.02.17.03v1c-.06.02-.16.02-.19 0-.02-.02-.06-.19-.08-.27-.01-.03-.02-.06-.06-.06-.16-.01-.43-.01-.57-.01H1.85c-.11 0-.16 0-.19.11l-.04.24c-.05.01-.12.02-.17 0-.05-.14-.11-.44-.12-.59l.04-.1h1.97v-.03c-.3-.27-.53-.72-.53-1.15 0-.27.1-.5.3-.66.21-.17.44-.17.77-.17H5.5c.01-.19.04-.35.07-.35M5.7 56.96c.05.15.1.43.1.56 0 .1-.06.15-.23.15h-.26v.02c.26.23.53.7.53 1.08 0 .24-.06.48-.26.65-.24.2-.53.2-.85.2H3.35c-.1 0-.16 0-.18.11l-.05.21c-.05.02-.12.02-.17 0-.05-.14-.11-.42-.12-.57l.04-.1h2.02c.41 0 .63-.15.63-.59 0-.39-.2-.73-.53-1.03H3.35c-.1 0-.16 0-.18.11l-.05.26c-.05.01-.12.02-.17 0a3.3 3.3 0 0 1-.12-.61l.04-.1h2.52c.07 0 .1-.02.1-.08.01-.09.02-.2.01-.28.04 0 .14-.01.2.01M5.57 51.67c.04 0 .12.01.17.03v1c-.06.02-.16.02-.19 0-.02-.02-.05-.15-.08-.27-.01-.04-.02-.06-.06-.06-.16-.01-.43-.01-.57-.01H3.81c-.38 0-.7.05-.7.55 0 .31.14.65.45.95.09-.01.19-.01.3-.01h1.63c.02-.19.06-.35.08-.35.04 0 .12.02.17.03v1c-.06.02-.16.02-.19 0-.02-.02-.05-.14-.08-.27-.01-.03-.02-.06-.06-.06-.16-.01-.43-.01-.57-.01H3.81c-.38 0-.7.05-.7.55 0 .32.15.67.48.97h1.9c.02-.19.06-.35.08-.35.04 0 .12.02.17.04v1c-.06.01-.16.02-.19 0-.02-.02-.06-.19-.08-.27-.01-.03-.02-.06-.06-.06-.16-.01-.43-.01-.57-.01H3.35c-.1 0-.16 0-.18.11l-.05.23c-.05.02-.12.02-.17 0a3 3 0 0 1-.12-.59l.04-.1h.42v-.02a1.44 1.44 0 0 1-.48-1.04c0-.27.09-.49.29-.65.06-.05.12-.08.19-.1v-.04c-.27-.24-.48-.64-.48-1.04 0-.28.09-.5.29-.65s.44-.15.77-.15H5.5c.01-.19.04-.35.07-.35M5.67 48.64c.08.1.12.22.12.41s-.12.29-.3.29h-.15v.01c.04.03.08.06.12.1.17.16.38.41.38.84s-.2.81-.69.81c-.36 0-.65-.19-.84-.56-.13-.26-.26-.7-.3-1.18h-.29c-.33 0-.63.16-.63.65 0 .26.1.49.17.54.07.04.24.05.34.05.05.08.08.23.08.33 0 .09-.05.12-.13.12-.1 0-.23-.06-.34-.17-.18-.18-.41-.54-.41-.98 0-.34.12-.58.31-.72.21-.15.47-.16.67-.16H5.3c.12 0 .21-.02.21-.16 0-.08-.01-.14-.02-.18.04-.03.14-.04.18-.04m-.14 1.59c0-.3-.13-.54-.27-.71a1 1 0 0 0-.13-.14h-.89c.03.39.16.79.27.99.12.2.31.39.58.39.28-.01.44-.18.44-.53M5.57 45.14c.04 0 .12.01.17.03v1c-.06.02-.16.02-.19 0-.02-.02-.05-.15-.08-.27-.01-.03-.02-.06-.06-.06-.16-.01-.43-.01-.57-.01H3.81c-.33 0-.69.03-.69.6 0 .35.17.74.53 1.07h1.84c.02-.19.06-.35.08-.35.04 0 .12.02.17.04v1c-.06.01-.16.02-.19 0-.02-.02-.06-.19-.08-.27-.01-.03-.02-.06-.06-.06-.16-.01-.43-.01-.57-.01H3.35c-.1 0-.16 0-.18.11l-.05.23c-.05.02-.12.02-.17 0a3 3 0 0 1-.12-.59l.04-.1h.47v-.02c-.3-.27-.53-.73-.53-1.15 0-.27.1-.5.3-.67.21-.17.44-.17.77-.17H5.5c.01-.19.04-.35.07-.35M5.57 41.75c.04 0 .12.02.17.04v1c-.05.02-.16.02-.19-.01-.02-.05-.05-.16-.06-.22-.01-.02-.02-.03-.05-.02-.05.03-.17.1-.24.15l-1.02.74.41.49h.89c.02-.19.06-.35.08-.35.04 0 .12.02.17.03v1c-.06.02-.16.02-.19 0-.02-.02-.06-.19-.08-.27-.01-.04-.02-.06-.06-.06-.16-.01-.43-.01-.57-.01h-3c-.1 0-.16 0-.18.11l-.05.25c-.05.01-.12.02-.17 0a3 3 0 0 1-.12-.59l.04-.1h2.93l-1.12-1.32c-.01.15-.05.36-.06.36a.7.7 0 0 1-.19-.03v-1.01a.28.28 0 0 1 .2.02c.03.08.05.2.06.24.01.03.05.09.08.13.08.09.32.37.43.51l.32.39 1.3-1c.14-.11.2-.16.2-.2.01-.07.04-.27.07-.27M1.83 41.2c-.16 0-.29-.13-.29-.3s.13-.3.29-.3.26.13.32.3c-.06.17-.16.3-.32.3m1.12.2a3.3 3.3 0 0 1-.12-.61l.04-.1h2.62c.02-.19.06-.37.08-.37.04 0 .12.02.17.04v1.03c-.06.01-.16.02-.19 0-.02-.02-.06-.2-.08-.29-.01-.04-.02-.06-.06-.06-.16-.01-.43-.01-.57-.01H3.35c-.1 0-.16 0-.18.11l-.05.26c-.05.01-.11.02-.17 0M5.57 36.75c.04 0 .12.01.17.03v1c-.06.02-.16.02-.19 0-.02-.02-.05-.14-.08-.27-.01-.03-.02-.06-.06-.06-.16-.01-.43-.01-.57-.01H3.81c-.33 0-.69.03-.69.6 0 .35.17.74.53 1.07h1.84c.02-.19.06-.35.08-.35.04 0 .12.02.17.04v1c-.06.01-.16.02-.19 0-.02-.02-.06-.19-.08-.27-.01-.03-.02-.06-.06-.06-.16-.01-.43-.01-.57-.01H3.35c-.1 0-.16 0-.18.11l-.05.23c-.05.02-.12.02-.17 0a3 3 0 0 1-.12-.59l.04-.1h.47v-.02c-.3-.27-.53-.72-.53-1.15 0-.27.1-.5.3-.67.21-.17.44-.17.77-.17H5.5c.01-.19.04-.35.07-.35M5.71 33.38c.05.15.09.39.09.52q0 .12-.18.12h-.27c.06.05.13.1.2.19.13.15.3.37.3.79 0 .6-.38 1.21-1.38 1.21-.93 0-1.66-.54-1.66-1.39 0-.3.09-.61.24-.78l-.62.02h-.58c-.11 0-.16 0-.19.11l-.04.26c-.05.02-.12.02-.17 0-.05-.15-.12-.47-.13-.62l.04-.09h4.02c.07 0 .1-.02.1-.08.01-.08.02-.18.01-.25.05-.02.16-.03.22-.01m-.17 1.53c0-.3-.12-.5-.21-.64a1 1 0 0 0-.19-.21H3.47c-.11.08-.19.17-.27.25-.07.13-.12.3-.12.5 0 .74.68 1.03 1.31 1.03.8.01 1.15-.37 1.15-.93M5.52 32.78c-.17 0-.32-.13-.32-.31s.15-.31.32-.31.27.13.35.31c-.08.18-.17.31-.35.31M5.85 27.47c.07.11.1.23.09.41s-.14.28-.32.27l-.16-.01v.01c.04.03.08.07.11.11.16.17.35.44.32.87s-.27.79-.75.76c-.36-.03-.63-.24-.79-.62-.11-.27-.2-.72-.21-1.2l-.29-.02c-.33-.03-.64.11-.68.6-.02.26.07.49.13.55.07.03.24.05.34.06.04.08.06.23.05.34-.01.09-.06.12-.14.11a.52.52 0 0 1-.32-.2c-.17-.19-.37-.56-.33-1.01.03-.34.16-.57.37-.69.22-.13.48-.12.68-.1l1.51.12c.12.01.21-.01.22-.14.01-.08 0-.14 0-.18.03-.05.13-.05.17-.04m-.26 1.57c.02-.3-.08-.55-.22-.73-.04-.05-.07-.1-.12-.15l-.89-.07c0 .39.09.8.19 1.01s.28.41.55.43c.28.01.46-.14.49-.49M3.7 24.71c.14.02.25.11.27.21l-.01.05c-.09.05-.21.14-.27.21.04.27.13.62.36.92l1.8.33c.05-.17.13-.39.15-.38.04.01.12.03.17.07l-.19 1.04c-.06 0-.16-.01-.18-.03-.01-.02-.03-.2-.03-.28 0-.04-.01-.06-.05-.07-.16-.03-.42-.09-.56-.11l-1.47-.27c-.1-.02-.16-.03-.2.08l-.09.22a.26.26 0 0 1-.17-.03c-.02-.15-.03-.45-.01-.6l.06-.09.49.09v-.02c-.19-.23-.44-.75-.37-1.09.03-.22.14-.28.3-.25M6.58 23.54c.1-.33.12-.63.05-.9l.16-.04c.19.33.18.76.07 1.14-.23.78-.9 1.12-1.75.87-.95-.28-1.38-.97-1.16-1.76.1-.35.33-.62.64-.73.23-.08.46-.08.74 0 .13.04.29.09.39.14l-.57 1.98.07.02c.52.14 1.13.06 1.36-.72m-1.23-1.08-.12-.04c-.52-.15-.89.05-1.03.54-.17.58.22 1 .67 1.18zM8.1 19.9c.04.13.03.25-.04.42s-.22.22-.39.15l-.15-.06v.01c.03.04.05.09.07.14.1.21.2.52.03.92s-.5.67-.95.48c-.33-.14-.53-.43-.56-.84-.02-.29.03-.75.17-1.2l-.27-.11c-.31-.13-.64-.1-.84.36-.1.24-.09.49-.05.56.06.06.21.13.3.16.01.09-.01.24-.05.34-.03.08-.09.09-.16.06-.1-.04-.18-.15-.24-.29-.1-.24-.18-.65 0-1.06.13-.31.33-.49.57-.54.25-.05.49.04.68.11l1.4.58c.11.04.2.06.25-.06.03-.08.04-.13.05-.17.04-.01.14.01.18.04m-.74 1.4c.12-.28.09-.55.02-.76l-.06-.18-.82-.34c-.12.37-.16.79-.13 1.02s.14.48.39.58c.24.1.46.01.6-.32M8.42 19.44l-.15.15c-.02.02-.03.01-.05 0l-.58-.32q.015-.075.06-.12l.33.03c.2.03.43-.06.65-.47.23-.42.11-.7-.14-.84-.28-.15-.5 0-.72.2l-.36.32c-.28.25-.65.4-1.01.21-.31-.17-.54-.61-.23-1.19.13-.24.26-.37.42-.52l.18-.14c.02-.01.03-.01.05 0l.49.27c-.01.04-.03.08-.06.11l-.29-.03c-.15-.01-.38.03-.6.43-.2.37-.09.61.13.73.27.15.47.02.7-.19l.35-.32c.35-.3.65-.42 1.03-.22.34.19.6.63.21 1.36-.12.24-.28.42-.41.55M9.21 15.36c-.73-.59-.86-1.34-.34-2s1.29-.69 2.02-.11c.74.59.88 1.35.35 2-.52.67-1.29.7-2.03.11m1.82-.28c.38-.48.27-1.05-.36-1.55-.62-.49-1.2-.48-1.58 0s-.27 1.05.35 1.55c.63.5 1.21.48 1.59 0M10.79 9.45c.09.09.11.2.07.29l-.03.03c-.26.03-.41.1-.55.24-.23.24-.15.56.27.97l.31.3.58-.59.17.17c.02.02.02.04 0 .05l-.56.57 1.65 1.62c.13-.11.33-.25.34-.23.03.03.08.09.1.15l-.74.76c-.05-.03-.13-.1-.13-.13 0-.02.09-.18.13-.25q.03-.045 0-.09c-.11-.12-.31-.32-.4-.41l-1.18-1.16-.36.37c-.01.01-.12-.1-.15-.14.06-.08.19-.26.3-.4l.02-.02-.18-.18c-.25-.25-.4-.48-.47-.7-.11-.37 0-.75.28-1.04.2-.25.4-.31.53-.18M15.14 11.19l-.2.07c-.03.01-.04 0-.05-.02l-.4-.53c.03-.04.06-.07.11-.09l.28.16c.17.11.42.12.79-.16.38-.29.4-.59.22-.83-.19-.25-.46-.2-.74-.12l-.46.14c-.36.11-.76.1-1.01-.23-.21-.28-.24-.78.28-1.18.22-.16.39-.23.6-.3l.23-.05c.03 0 .04 0 .05.02l.34.45c-.02.03-.06.06-.1.08l-.26-.12c-.13-.07-.36-.13-.72.14-.34.25-.34.52-.18.72.18.25.42.21.72.12l.45-.14c.45-.13.77-.11 1.03.23.23.31.29.83-.38 1.33-.21.15-.43.24-.6.31M15.23 7.69c.04-.08.27-.27.34-.34-.04-.19-.1-.41-.12-.6l.14-.09.33.52.76-.48.13.2c.01.02.01.04-.01.06l-.73.45 1.09 1.75c.12.19.23.21.44.08.13-.09.3-.22.4-.35.04.03.1.08.13.13-.1.24-.33.45-.58.6-.16.1-.43.17-.63-.15L15.77 7.6l-.4.25c-.02.02-.14-.1-.14-.16M21.11 7.57c-.11.11-.34.28-.46.34-.09.04-.16.01-.23-.15l-.11-.23-.02.01c-.09.34-.4.78-.74.95-.22.11-.46.16-.7.06-.29-.12-.42-.39-.56-.68l-.61-1.25c-.05-.09-.07-.14-.18-.11l-.21.05a.3.3 0 0 1-.08-.16c.1-.1.33-.28.46-.36l.11-.01.89 1.82c.18.37.41.51.81.31.35-.17.57-.5.69-.93l-.72-1.48c-.05-.09-.07-.15-.18-.11l-.25.07a.4.4 0 0 1-.08-.16c.11-.11.37-.3.49-.38l.11-.01 1.11 2.26c.03.06.06.08.11.06.08-.03.19-.07.26-.11.03.06.08.15.09.2M24.15 6.55c-.13.09-.34.21-.46.25-.07.02-.13-.02-.17-.13l-.09-.26c-.02.08-.06.15-.11.25-.1.17-.25.4-.66.54-.57.19-1.26.02-1.58-.92-.3-.88-.02-1.74.78-2.01.28-.09.6-.11.82-.02l-.21-.58-.2-.57c-.04-.1-.05-.15-.16-.14l-.25.04a.28.28 0 0 1-.05-.16c.12-.1.41-.26.55-.32l.1.01 1.28 3.81c.02.07.05.09.1.08.07-.02.18-.04.24-.07.02.04.06.13.07.2m-1.51.33c.28-.09.44-.28.54-.41.06-.07.1-.16.14-.24l-.53-1.59c-.11-.08-.22-.13-.33-.18-.15-.02-.32-.01-.51.05-.7.24-.75.98-.56 1.57.26.76.73.98 1.25.8M26.58 3.38c-.06.04-.16.1-.23.13-.05.15-.12.57-.15.75l-.36 1.95c-.06.35-.26.98-.32 1.12-.14.35-.3.54-.62.6-.23.05-.45 0-.49-.18-.03-.12.01-.26.06-.3l.03-.01c.15.06.37.11.5.09.12-.02.21-.12.27-.25.08-.17.24-.65.29-.99l-1.19-1.77c-.12-.18-.24-.34-.32-.46-.05-.07-.09-.08-.12-.08l-.2-.01c-.03-.04-.07-.15-.05-.2l.97-.2c.04.05.06.12.07.17 0 .01-.15.08-.3.14.08.15.19.34.32.53l.43.66.46.7.07-.01.12-.74.13-.79c.02-.23.04-.5.05-.67-.12.01-.32 0-.32-.02a.5.5 0 0 1 0-.18l.87-.18c.03.04.05.15.03.2M30.26.72c.03.02.08.05.1.08.02.04.03.08 0 .11-.6.43-.99 1.28-.92 2.75.06 1.47.51 2.28 1.15 2.66.06.06-.03.2-.09.2-.9-.48-1.35-1.36-1.42-2.84s.33-2.41 1.18-2.96M31.21 5.73l-.2-.06c-.03-.01-.03-.02-.03-.05v-.67c.05-.02.09-.02.14-.01l.13.3c.07.19.26.35.73.35.48 0 .67-.24.67-.53 0-.32-.24-.43-.52-.54l-.45-.17c-.35-.13-.67-.38-.67-.79 0-.35.28-.77.93-.77.27 0 .45.05.66.12l.21.09c.02.01.03.02.03.05v.56c-.03.01-.08.01-.13 0l-.13-.25c-.06-.14-.21-.32-.66-.32-.42 0-.58.21-.58.47 0 .31.21.42.5.53l.45.16c.44.16.68.37.68.8 0 .39-.27.83-1.1.83-.25.01-.48-.05-.66-.1M36.37 5.7c-.15.05-.43.1-.56.1-.1 0-.15-.06-.15-.23v-.26h-.02c-.23.26-.7.53-1.08.53-.24 0-.48-.06-.65-.26-.2-.24-.2-.53-.2-.85V3.35c0-.1 0-.16-.11-.18l-.21-.05a.25.25 0 0 1 0-.17c.14-.05.42-.11.57-.12l.1.04v2.02c0 .41.15.63.59.63.39 0 .73-.2 1.03-.53V3.35c0-.1 0-.16-.11-.18l-.27-.05a.33.33 0 0 1 0-.17c.15-.05.46-.11.61-.12l.1.04v2.52c0 .07.02.1.08.1.09.01.2.02.28.01.02.04.02.14 0 .2M36.91 4.39c0-.88.52-1.59 1.47-1.59.23 0 .56.05.77.18.12.08.2.19.2.32s-.08.31-.23.35h-.05c-.07-.1-.17-.31-.26-.48-.09-.08-.35-.09-.52-.09-.73 0-1.03.65-1.03 1.28 0 .67.33 1.17 1.08 1.17.46 0 .74-.15.94-.3l.09.13c-.23.27-.65.48-1.15.48-.81 0-1.31-.6-1.31-1.45M42.88 5.62c0 .04-.02.12-.04.17l-1-.02c-.01-.06-.02-.16 0-.19.02-.02.15-.05.27-.08.03 0 .06-.02.06-.06.01-.16.02-.43.02-.57l.02-1.03c.01-.32-.02-.69-.58-.7-.35-.01-.75.15-1.08.51l-.03 1.83c.19.03.35.06.35.09 0 .04-.02.12-.04.17l-1-.02c-.02-.06-.02-.16 0-.19.02-.02.19-.06.27-.08.04-.01.06-.02.06-.06.01-.16.02-.43.02-.57l.06-2.99c0-.11 0-.16-.11-.19l-.23-.03a.33.33 0 0 1 0-.17c.15-.05.44-.1.59-.11l.1.04-.04 1.97h.03c.27-.3.73-.52 1.16-.51.27 0 .5.11.66.31.16.21.17.44.16.77l-.03 1.62c.18.03.35.07.35.09M47.48 5.94c-.11.08-.23.11-.41.1s-.28-.13-.27-.32l.01-.16h-.01c-.03.04-.07.08-.11.12-.17.16-.43.36-.86.34-.44-.02-.8-.25-.77-.73.02-.36.23-.64.6-.81.27-.12.72-.22 1.19-.24l.02-.29c.02-.33-.12-.64-.62-.67-.26-.01-.49.08-.55.14-.03.07-.05.24-.05.34a.7.7 0 0 1-.33.06c-.09 0-.12-.06-.11-.13.01-.1.08-.22.19-.33.19-.17.56-.38 1-.36.34.02.57.15.7.35.13.22.13.48.12.68l-.08 1.51c-.01.12.01.21.15.22.08 0 .14 0 .18-.01.01.05.02.15.01.19m-1.57-.22c.3.02.55-.1.73-.23l.15-.12.05-.89c-.39.01-.8.11-1.01.21s-.41.29-.42.56c-.02.27.14.45.5.47M48.11 6.05l-.2-.08c-.03-.01-.03-.03-.03-.05l.05-.67a.3.3 0 0 1 .14 0l.1.31c.06.19.23.37.7.4.47.04.69-.19.71-.48.02-.32-.21-.45-.48-.58l-.44-.2c-.34-.15-.64-.43-.6-.84.03-.35.34-.75.99-.7.27.02.45.09.65.17l.21.11c.02.01.03.03.03.05l-.04.58c-.04.01-.08.01-.13-.01l-.11-.26c-.05-.14-.18-.33-.64-.37-.42-.03-.59.17-.61.43-.02.31.18.43.46.56l.43.19c.42.2.65.42.62.85-.03.39-.33.81-1.16.75-.25-.02-.48-.1-.65-.16M55.01 6.56c0 .04-.03.12-.06.17l-.99-.11c0-.06 0-.16.02-.18s.15-.04.28-.05q.06 0 .06-.06c.02-.16.06-.43.08-.57l.12-1.02c.04-.32.04-.69-.51-.75-.35-.04-.76.08-1.13.41l-.21 1.82c.18.04.34.1.34.12 0 .04-.03.12-.05.17l-.99-.11c-.01-.06 0-.16.02-.18s.2-.04.28-.05q.06 0 .06-.06c.02-.16.06-.43.08-.57l.34-2.98c.01-.11.02-.16-.09-.2l-.23-.07c-.01-.05 0-.12.02-.17.15-.04.45-.06.6-.05l.09.05-.22 1.96h.03c.3-.27.78-.45 1.2-.4.27.03.48.15.62.38s.12.46.09.78l-.18 1.61c.17.03.33.09.33.11M55.86 4.03c.15-.03.48-.05.63-.04l.09.05-.35 2.6c.19.05.35.11.35.13-.01.04-.03.12-.06.17L55.5 6.8c0-.06 0-.16.02-.18s.21-.04.3-.04c.04 0 .06-.02.07-.06.03-.16.07-.42.09-.57l.2-1.48c.01-.1.02-.16-.09-.19l-.25-.08a.26.26 0 0 1 .02-.17m.34-1.08c.02-.16.17-.27.33-.25s.28.17.25.33c-.02.16-.16.24-.34.28-.15-.09-.26-.2-.24-.36M57.26 7.04l-.19-.09c-.03-.02-.02-.03-.02-.05l.1-.66c.05-.01.09 0 .14.02l.08.32c.04.19.21.38.67.45.47.07.7-.13.74-.42.05-.32-.18-.47-.44-.61l-.42-.23c-.33-.18-.6-.47-.54-.88.05-.35.39-.72 1.04-.62.27.04.44.12.64.22l.2.12c.02.02.03.03.02.05l-.08.54c-.04.01-.08 0-.13-.02l-.09-.27c-.04-.15-.16-.35-.61-.42-.42-.06-.61.13-.64.38-.05.3.14.44.42.6l.42.22c.41.23.62.47.56.89-.06.38-.39.79-1.21.66-.26-.03-.49-.12-.66-.2M59.73 4.62c.08-.03.38-.03.49-.03.09-.17.2-.38.31-.53l.16.03-.1.61.89.15-.04.23c0 .02-.02.04-.05.03l-.85-.14-.35 2.04c-.04.22.03.31.28.35.17.03.38.04.55.01.02.05.03.13.02.19-.24.11-.55.11-.83.06-.18-.03-.43-.16-.37-.53l.37-2.17-.46-.08c-.04-.01-.06-.18-.02-.22M61.79 6.34c.18-.92.79-1.39 1.62-1.23s1.21.82 1.03 1.74c-.18.93-.78 1.4-1.61 1.24s-1.22-.83-1.04-1.75m1.09 1.48c.6.12 1.05-.25 1.2-1.04.15-.77-.14-1.28-.73-1.4-.6-.12-1.06.25-1.21 1.02-.15.79.14 1.3.74 1.42M67.22 6.15c-.03.14-.12.24-.22.26l-.05-.01a2 2 0 0 0-.2-.28c-.27.03-.62.12-.93.34l-.39 1.79c.17.05.39.14.38.17-.01.04-.04.12-.07.16l-1.04-.22c0-.06.01-.16.04-.18.02-.01.2-.02.28-.02.04 0 .06-.01.07-.05.04-.16.1-.42.13-.56l.31-1.46c.02-.1.03-.16-.07-.2l-.22-.09c-.01-.05.01-.12.04-.17.15-.02.45-.02.6.01l.09.06-.1.49h.02c.25-.19.77-.42 1.11-.35.19.04.25.15.22.31M70.24 6.91c-.07.01-.19.03-.26.02-.11.12-.35.47-.46.62l-1.15 1.62c-.21.29-.65.78-.77.89-.27.26-.5.36-.81.29-.23-.06-.41-.19-.37-.37.03-.12.12-.23.18-.25l.03.01c.11.12.28.26.42.29.12.03.24-.02.35-.11.15-.11.49-.49.69-.78l-.33-2.11c-.03-.21-.08-.41-.1-.55-.02-.09-.05-.12-.08-.13l-.18-.1c-.01-.05 0-.16.04-.2l.97.23c.02.06 0 .14-.01.19 0 .01-.17.01-.33 0 .01.17.03.39.07.62l.11.78.12.83.07.02.42-.62.45-.66c.14-.2.27-.44.35-.58-.11-.04-.29-.13-.29-.15.01-.04.04-.12.08-.17l.87.21c-.01.02-.04.12-.08.16M69.8 10.52c.46-.15.67-.46.65-.75-.04-.12-.21-.21-.37-.33.04-.15.16-.35.39-.29.25.06.32.28.33.48.02.4-.25.9-.92 1.09-.09-.06-.13-.19-.08-.2M72.91 10.16c.02-.01.23-.01.3 0 .04 0 .06-.01.07-.05.05-.15.13-.41.17-.55l.82-2.88c.03-.11.04-.16-.06-.21l-.25-.11c0-.06.02-.12.05-.17.15-.01.49.02.63.05l.08.07-1.13 3.97c.18.07.34.16.33.18-.01.04-.05.11-.08.16l-.99-.28c.01-.06.03-.16.06-.18M76.81 11.43c-.12.05-.25.05-.42 0s-.24-.2-.19-.37l.05-.15h-.01a1 1 0 0 1-.14.09c-.2.12-.5.25-.92.12s-.72-.43-.58-.9c.1-.34.37-.57.78-.64.29-.05.75-.04 1.21.05l.08-.28c.1-.32.03-.65-.45-.79-.25-.08-.5-.04-.56 0-.05.06-.1.22-.13.32-.08.02-.23.01-.33-.02-.08-.03-.1-.09-.08-.16.03-.1.13-.2.26-.27.22-.12.63-.24 1.06-.11.32.1.52.28.6.51.08.24.01.5-.04.68l-.44 1.45c-.03.11-.04.21.09.25.08.02.14.03.18.04.02.04 0 .14-.02.18m-1.48-.59c.29.09.56.04.76-.05.06-.03.12-.05.18-.08l.26-.86c-.38-.08-.8-.08-1.03-.03s-.46.19-.54.44c-.08.27.03.48.37.58M80.15 12.42a.4.4 0 0 1-.09.15l-.95-.31c0-.06.03-.16.06-.18.02-.01.15 0 .28.01.04.01.06 0 .08-.04.06-.15.15-.4.19-.54l.32-.97c.1-.31.18-.67-.35-.84-.34-.11-.75-.07-1.18.16l-.58 1.75c.17.08.31.16.3.19a.4.4 0 0 1-.09.15l-.95-.31c.01-.06.03-.16.06-.18.02-.01.2 0 .28.01.04.01.06 0 .08-.04.06-.15.15-.4.19-.54l.47-1.42c.03-.1.05-.15-.05-.21l-.21-.12c0-.06.02-.12.05-.17.15 0 .45.03.6.07l.08.07-.15.45.02.01c.35-.2.86-.28 1.26-.14.25.08.44.25.54.5.09.25.02.47-.08.78l-.51 1.54c.19.07.33.15.33.17M83.87 11.18a6 6 0 0 1-.44-.18c.1.22.11.48.01.75-.22.61-.81.8-1.4.59-.16-.06-.31-.14-.43-.25a.74.74 0 0 0-.26.31c-.07.19.12.29.32.39l.55.26c.54.26.93.52.75 1.01-.14.38-.49.55-.84.6-.39.06-.69-.01-1-.12-.74-.27-1.03-.63-.86-1.11.14-.39.49-.53.77-.57l.01-.03c-.1-.11-.14-.24-.09-.38.04-.12.17-.31.34-.42l.15-.1c-.18-.25-.24-.57-.11-.93.22-.61.8-.79 1.39-.58.14.05.27.12.38.2l1.05.38-.07.19c-.02.06-.11.03-.22-.01m-2.63 3.11c.62.22 1.22.18 1.37-.23.13-.35-.21-.54-.63-.75l-.71-.34c-.32.09-.54.26-.63.51l-.04.1c-.08.24.12.52.64.71m.9-2.19c.41.15.83.02 1-.46.17-.47-.06-.83-.48-.98-.4-.15-.81-.01-.98.45-.17.48.05.85.46.99M86.33 14.88c-.16-.01-.44-.06-.56-.11-.09-.04-.11-.11-.05-.27l.09-.24-.02-.01c-.31.16-.85.23-1.2.1-.23-.09-.43-.23-.51-.48-.1-.3.01-.57.12-.87l.51-1.29c.04-.1.06-.15-.04-.21l-.18-.12c0-.06.03-.11.06-.16.15.01.43.05.57.09l.08.07-.74 1.89c-.15.38-.1.64.32.81.36.14.75.08 1.15-.12l.6-1.53c.04-.1.06-.15-.04-.21l-.22-.14c.01-.05.03-.11.06-.16.15.01.47.07.61.11l.08.08-.92 2.34q-.045.09.03.12c.08.04.18.09.26.11a.28.28 0 0 1-.06.2M89.12 16.03c-.13.03-.25.03-.42-.05s-.22-.22-.15-.39l.06-.14c-.04.03-.09.05-.14.07-.21.09-.52.19-.92.03-.4-.17-.67-.5-.48-.95.14-.33.43-.52.84-.56.29-.02.75.04 1.2.18l.11-.27c.13-.3.1-.64-.36-.84-.24-.1-.49-.09-.56-.06-.06.06-.13.21-.17.3a.8.8 0 0 1-.34-.05c-.08-.03-.09-.1-.06-.17.04-.1.15-.18.29-.24.24-.1.65-.17 1.06 0 .31.13.49.33.54.57.05.25-.04.49-.12.68l-.59 1.39c-.04.11-.06.2.06.25.07.03.13.04.17.05.03.06 0 .16-.02.2m-1.4-.74c.28.12.55.09.76.03l.18-.06.35-.82c-.37-.12-.79-.16-1.02-.14-.23.03-.48.14-.58.38-.11.25-.02.47.31.61M92.94 14.97c-.06-.03-.23-.11-.42-.21.08.23.07.48-.05.75-.27.59-.87.74-1.44.48-.16-.07-.3-.17-.41-.28-.16.1-.25.21-.28.29-.08.19.09.3.29.41l.53.3c.51.3.88.59.67 1.06-.16.36-.53.51-.89.53-.39.03-.69-.06-.99-.2-.71-.32-.98-.71-.77-1.17.17-.38.53-.49.81-.51l.01-.03c-.09-.12-.12-.25-.06-.38.05-.12.2-.29.38-.4l.15-.09c-.16-.26-.19-.59-.04-.93.27-.59.86-.73 1.43-.47.14.06.26.14.36.23l1 .45-.08.19c-.01.06-.1.02-.2-.02m-2.86 2.89c.6.27 1.2.28 1.38-.13.15-.34-.16-.56-.57-.79l-.68-.39c-.32.07-.55.21-.66.46l-.04.1c-.11.23.06.52.57.75m1.06-2.11c.4.18.82.08 1.03-.38.2-.45.01-.83-.4-1.01-.39-.18-.8-.08-1.01.38-.21.45-.01.83.38 1.01M93.81 18.03c.31.15.6.22.88.19l.01.16c-.35.13-.78.05-1.13-.12-.73-.35-.95-1.07-.57-1.87.43-.89 1.18-1.2 1.93-.85.33.16.55.43.62.75.04.24 0 .47-.12.72-.06.13-.14.27-.21.36l-1.85-.89-.03.07c-.25.51-.26 1.13.47 1.48M95.07 17l.05-.11c.23-.49.1-.89-.36-1.11-.55-.26-1.03.05-1.27.46zM94.74 19.79c.48-.05.75-.3.8-.59-.01-.12-.16-.25-.29-.4.07-.14.23-.31.44-.2.23.11.25.34.21.54-.07.39-.44.83-1.14.86-.06-.07-.08-.21-.02-.21M100 21.4c-.13.02-.25 0-.41-.09s-.2-.24-.11-.4l.07-.14q-.06.03-.15.06c-.22.07-.54.14-.92-.06-.38-.21-.62-.57-.38-.99.17-.32.48-.48.89-.47.29.01.74.11 1.18.3l.14-.25c.16-.29.16-.63-.27-.87-.23-.12-.48-.14-.55-.11-.06.05-.15.2-.19.28-.09 0-.24-.04-.33-.09-.08-.04-.08-.1-.05-.17.05-.09.16-.17.31-.21.24-.07.67-.11 1.06.1.3.16.45.38.48.62.03.25-.09.49-.18.66l-.72 1.33c-.06.1-.08.19.04.26.07.04.13.06.17.07-.02.04-.06.13-.08.17m-1.33-.88c.26.14.54.15.76.1.06-.01.13-.02.19-.04l.43-.79c-.36-.16-.77-.24-1-.24-.23.01-.49.09-.62.32-.14.25-.07.48.24.65M103.08 23.05c-.02.04-.07.1-.12.13l-.86-.5c.01-.06.06-.15.09-.16.02-.01.15.03.28.07.03.01.06.01.08-.03.09-.14.22-.37.3-.49l.51-.89c.16-.28.32-.61-.17-.9-.31-.18-.72-.22-1.19-.08l-.92 1.59c.15.11.27.22.26.24a.5.5 0 0 1-.12.13l-.86-.5c.02-.06.06-.15.09-.16.02-.01.2.04.28.07.03.01.06.01.08-.03.09-.14.22-.37.3-.49l.75-1.29c.05-.09.08-.14-.01-.21l-.18-.16c.01-.05.04-.11.09-.15.15.03.44.12.57.19l.07.08-.24.41.02.01c.39-.12.89-.1 1.26.11.23.13.38.33.43.59.04.26-.08.47-.24.75l-.81 1.4c.15.13.27.25.26.27M105.86 24.91c-.15-.04-.38-.13-.49-.19-.06-.04-.07-.11-.01-.22l.14-.23c-.07.03-.16.05-.26.07-.2.03-.47.07-.83-.16-.51-.31-.83-.96-.31-1.81.49-.79 1.33-1.13 2.05-.69.25.15.47.39.54.61l.31-.54.3-.49c.06-.09.08-.14 0-.22l-.2-.17c.01-.05.05-.11.09-.14.15.03.46.15.6.22l.06.08-2.1 3.43c-.04.06-.03.1.01.13.06.04.14.11.21.14-.01.04-.06.14-.11.18m-1.22-.94c.25.15.49.16.66.15.09 0 .18-.02.28-.05l.88-1.43a1.4 1.4 0 0 0-.08-.37c-.08-.13-.2-.26-.37-.36-.63-.39-1.23.05-1.56.58-.42.69-.28 1.18.19 1.48M107.67 25.89c.02 0 .22.06.29.09.03.01.06.01.08-.02.09-.13.25-.35.33-.47l1.65-2.5c.06-.09.09-.14.01-.22l-.2-.18c.01-.05.05-.11.1-.15.14.03.46.17.59.24l.06.09-2.27 3.45c.15.12.27.25.26.27-.02.03-.08.09-.12.13l-.86-.57c0-.06.05-.15.08-.16M110.45 24.59c.15.04.45.17.58.24l.06.09-1.47 2.17c.15.13.27.25.26.27-.02.03-.08.09-.13.12l-.86-.58c.02-.05.07-.15.1-.15.02 0 .2.06.29.1.03.01.06.01.08-.02.1-.13.25-.35.33-.47l.83-1.24c.06-.09.09-.13.01-.21l-.19-.18c.03-.04.06-.1.11-.14m.79-.81c.09-.13.27-.17.41-.07s.17.28.08.41-.25.14-.42.1c-.11-.16-.16-.31-.07-.44M111.58 25.39c.09 0 .36.14.45.18.16-.12.34-.26.5-.35l.13.09-.35.5.74.51-.14.2c-.01.02-.04.02-.06.01l-.7-.49-1.18 1.69c-.13.19-.1.29.1.43.14.1.33.19.49.24-.01.05-.03.13-.06.17-.26 0-.54-.13-.78-.29-.15-.11-.33-.32-.11-.64l1.25-1.8-.39-.27s.06-.16.11-.18M113.12 29.61c.28.2.55.32.84.35l-.02.16c-.37.07-.78-.09-1.09-.32-.66-.48-.75-1.22-.23-1.94.58-.8 1.38-.98 2.05-.49.3.21.47.52.48.85 0 .24-.08.46-.25.69-.08.11-.18.24-.26.32l-1.67-1.21-.04.06c-.34.45-.46 1.06.19 1.53m1.43-.79.07-.1c.32-.44.25-.85-.16-1.15-.49-.36-1.02-.14-1.33.23zM117.45 29.77c-.08.11-.21.17-.31.14l-.04-.03c-.01-.11-.04-.25-.07-.33-.26-.09-.61-.16-.98-.09l-1.11 1.46c.13.12.29.29.27.31-.02.03-.08.09-.13.12l-.85-.64c.03-.05.08-.14.11-.15.02 0 .19.06.27.1.03.02.06.02.08-.02.1-.13.27-.33.36-.45l.9-1.19c.06-.08.1-.13.02-.21l-.16-.18c.02-.05.06-.1.1-.14.14.05.42.18.55.26l.05.09-.3.4.01.01c.29-.06.87-.05 1.14.16.18.12.19.25.09.38M118.1 33.61c-.13 0-.25-.04-.39-.16s-.16-.27-.04-.42l.1-.12c-.05.01-.1.02-.16.03-.23.03-.56.05-.9-.22s-.51-.66-.21-1.05c.22-.28.55-.39.96-.31.29.06.71.24 1.11.49l.18-.23c.21-.26.27-.59-.12-.9-.2-.16-.45-.22-.53-.2-.07.04-.18.17-.24.25a.8.8 0 0 1-.31-.14c-.07-.05-.06-.12-.02-.18.06-.08.19-.14.35-.16.25-.03.67.01 1.02.29.26.21.38.45.37.69-.02.25-.17.47-.29.62l-.94 1.19c-.07.09-.11.18-.01.26.06.05.12.08.15.1 0 .06-.05.14-.08.17m-1.16-1.09c.24.19.51.24.73.23.06 0 .13 0 .19-.01l.55-.7c-.32-.22-.71-.37-.94-.41s-.5 0-.67.21c-.16.22-.13.46.14.68M119.98 31.67c.09.01.34.17.44.22.17-.1.36-.23.53-.31l.12.1-.39.47.69.57-.15.18c-.01.02-.04.02-.06.01l-.66-.55-1.31 1.59c-.14.17-.13.28.07.44.13.11.31.22.47.28-.01.05-.04.12-.08.17-.26-.02-.53-.18-.75-.36-.14-.12-.3-.35-.05-.65l1.4-1.69-.36-.3c-.03 0 .04-.16.09-.17M122.19 37.1c-.14-.06-.39-.2-.49-.29-.08-.06-.07-.14.04-.27l.17-.19-.02-.01c-.35.05-.88-.06-1.17-.31-.18-.16-.33-.36-.33-.62 0-.31.19-.54.4-.78l.91-1.05c.07-.08.1-.12.03-.21l-.13-.18c.02-.05.06-.1.11-.13.14.06.39.19.51.28l.05.09-1.32 1.53c-.26.31-.3.57.04.87.29.25.68.32 1.12.27l1.07-1.25c.07-.08.11-.12.03-.21l-.16-.2c.03-.05.06-.1.11-.13.14.06.42.22.54.31l.05.1-1.64 1.91c-.04.05-.05.09-.01.13.06.06.14.15.2.19 0 .04-.06.12-.11.15M125.82 36.83c-.09.1-.22.15-.32.11l-.03-.03c0-.11-.01-.25-.04-.34-.25-.11-.6-.21-.97-.17l-1.23 1.36c.12.13.26.32.25.33-.03.03-.09.08-.14.11l-.79-.71c.03-.05.09-.14.12-.14.02 0 .18.08.26.12.03.02.06.02.09-.01.11-.12.3-.31.39-.42l1-1.11c.07-.08.11-.12.04-.21l-.14-.19a.3.3 0 0 1 .12-.13c.14.06.4.21.52.31l.05.1-.33.37.01.01c.3-.04.87.03 1.12.26.13.13.13.26.02.38M125.46 39.87c.25.24.51.39.79.45l-.04.16c-.38.02-.76-.19-1.04-.46-.59-.56-.58-1.31.02-1.96.68-.72 1.5-.79 2.1-.23.27.25.4.58.36.9-.03.24-.14.45-.34.65-.1.1-.21.22-.3.28l-1.5-1.41-.05.05c-.39.43-.59 1.02 0 1.57m1.52-.6.09-.09c.37-.39.36-.82-.01-1.17-.44-.42-.99-.27-1.35.06zM125.9 41.67c-.04-.04-.01-.21.07-.21.73.15 1.6-.15 2.63-1.2s1.31-1.93 1.15-2.65c0-.04.03-.07.08-.08.04-.01.1 0 .13.01.26.98-.07 1.91-1.11 2.97s-1.96 1.4-2.95 1.16M130.9 41.62c.09.02.33.2.41.27.18-.08.38-.19.56-.24l.11.12-.44.43.62.65-.17.15q-.03.03-.06 0l-.6-.62-1.49 1.43c-.16.16-.16.26.02.44.12.13.29.26.43.33-.02.05-.05.12-.1.16-.25-.05-.51-.24-.71-.44-.13-.13-.26-.38.02-.65l1.58-1.53-.33-.34c0-.01.09-.15.15-.16M132.64 47.27a.5.5 0 0 1-.16.09l-.68-.73c.04-.05.1-.13.14-.13.02 0 .14.07.25.15.03.02.06.03.09 0 .12-.11.32-.28.43-.38l.76-.7c.24-.22.48-.49.11-.9-.24-.26-.63-.44-1.12-.43l-1.35 1.24c.11.15.19.3.18.31-.03.03-.1.07-.15.09l-.68-.73c.03-.05.1-.13.14-.13.02 0 .18.1.25.15.03.02.06.03.09 0 .12-.11.32-.28.43-.38l2.21-2.03c.08-.08.12-.11.06-.21l-.13-.2c.03-.04.08-.1.13-.12.14.07.38.25.49.35l.04.1-1.45 1.34.02.02c.4-.01.89.17 1.17.48.18.2.27.43.23.69-.04.27-.21.43-.45.65l-1.19 1.1c.08.16.16.3.14.31M134.53 49.59c-.13-.02-.24-.09-.36-.23s-.1-.29.04-.42l.12-.1c-.05 0-.1.01-.16 0-.23-.01-.55-.05-.84-.38s-.38-.74-.01-1.06c.27-.24.61-.28 1-.13.27.11.65.36 1 .69l.22-.19c.25-.22.37-.53.04-.91-.17-.2-.4-.3-.48-.3-.08.03-.21.13-.28.2a.8.8 0 0 1-.28-.2c-.06-.07-.04-.13.02-.18.08-.07.21-.1.37-.09.25.02.66.13.95.47.22.25.29.51.24.75-.06.25-.25.43-.4.56l-1.14 1c-.09.08-.14.15-.05.25.05.06.1.1.13.12-.02.05-.09.13-.13.15m-.93-1.28c.2.23.45.33.67.36l.19.03.67-.59c-.28-.27-.64-.49-.85-.57-.22-.08-.49-.09-.69.09-.21.18-.23.42.01.68M136.73 48c.08.03.31.22.39.29.18-.07.4-.16.58-.21l.1.12-.47.4.58.69-.18.15c-.02.01-.04.01-.06-.01l-.55-.66-1.58 1.33c-.17.15-.17.25-.01.44a2 2 0 0 0 .41.36c-.02.05-.06.11-.11.15-.25-.07-.49-.27-.67-.49-.12-.14-.23-.4.06-.65l1.68-1.42-.3-.36c-.02.01.07-.12.13-.13M140.41 52.66c-.11.09-.24.11-.34.06l-.03-.04c.02-.11.03-.25.02-.34-.23-.15-.55-.31-.93-.33l-1.44 1.14c.09.15.21.35.19.37-.03.03-.1.07-.16.08l-.66-.83c.04-.05.11-.12.15-.12.02 0 .17.11.23.16.03.02.05.03.09.01.13-.1.34-.26.46-.35l1.17-.93c.08-.06.13-.1.07-.2l-.11-.21c.03-.05.08-.09.14-.11.13.08.36.28.46.39l.03.1-.39.31.01.01c.3.01.85.17 1.06.44.13.16.11.29-.02.39M139.56 55.61c.21.28.44.47.7.58l-.06.15c-.38-.04-.72-.31-.95-.62-.49-.65-.36-1.39.35-1.92.79-.6 1.61-.53 2.1.12.22.29.3.63.21.95-.07.23-.21.42-.44.59-.11.08-.24.18-.35.23l-1.25-1.64-.06.05c-.45.32-.74.86-.25 1.51m1.59-.35.1-.08c.43-.33.49-.74.18-1.15-.37-.49-.94-.43-1.34-.17zM140.45 56.86c.02 0 .18.13.24.19.03.02.05.03.09.01.13-.09.35-.24.47-.33l2.42-1.76c.09-.06.13-.1.08-.2l-.12-.24a.3.3 0 0 1 .14-.1c.12.08.37.32.46.43l.03.1-3.33 2.43c.09.17.17.33.15.34-.03.02-.11.06-.16.07l-.61-.83c.03-.05.11-.12.14-.11M142.74 60.25a.58.58 0 0 1-.33-.26c-.11-.15-.07-.3.08-.41l.13-.09c-.05 0-.1-.01-.16-.02-.23-.03-.55-.11-.8-.47s-.3-.78.1-1.06c.29-.21.64-.22 1.01-.03.26.14.61.43.93.79l.24-.17c.27-.19.43-.49.14-.9-.15-.21-.37-.34-.45-.34-.08.02-.22.11-.3.17a.9.9 0 0 1-.26-.22c-.05-.07-.03-.13.03-.17.09-.06.22-.08.38-.05.25.04.64.2.9.56.19.27.24.54.16.77-.09.24-.29.4-.46.51l-1.24.87c-.09.07-.16.14-.08.25.05.07.09.11.12.14a.6.6 0 0 1-.14.13m-.8-1.37c.17.25.42.37.63.43.06.01.12.03.19.04l.73-.51c-.25-.3-.58-.56-.79-.66s-.48-.14-.7.02c-.23.15-.27.39-.06.68M145.07 58.89c.08.04.28.26.36.33.19-.05.41-.12.6-.14l.09.13-.51.34.5.74-.2.13c-.02.01-.04.01-.06-.01l-.48-.71-1.71 1.15c-.19.13-.2.23-.06.44.1.14.24.3.37.4-.03.04-.07.11-.12.14-.24-.1-.46-.32-.62-.55-.1-.15-.19-.42.13-.63l1.82-1.23-.26-.39c-.02-.01.09-.14.15-.14M144.99 63.4c.19.29.4.5.65.63l-.07.14c-.37-.07-.69-.37-.9-.69-.44-.68-.25-1.41.49-1.89.83-.54 1.64-.41 2.09.28.2.31.25.65.14.96-.09.23-.25.4-.48.55-.12.08-.26.16-.36.2l-1.12-1.73-.06.04c-.48.31-.82.83-.38 1.51m1.62-.22.11-.07c.45-.29.55-.7.27-1.13-.33-.51-.9-.5-1.33-.27zM148.74 64.55c.08.04.27.27.34.35.19-.04.42-.09.6-.11l.08.14-.53.32.46.77-.2.12c-.02.01-.04.01-.06-.01l-.43-.75-1.77 1.06c-.19.12-.21.22-.08.44.09.15.22.31.35.42-.03.04-.08.1-.13.13-.24-.11-.44-.34-.59-.59-.1-.16-.16-.43.16-.63l1.89-1.13-.24-.4c-.03-.02.09-.14.15-.13M148.76 67.21c.82-.47 1.57-.31 1.99.43.42.73.17 1.45-.65 1.92s-1.58.32-1.99-.41c-.42-.74-.17-1.47.65-1.94m-.41 1.79c.3.53.88.63 1.57.24.68-.39.89-.94.58-1.47-.3-.53-.88-.64-1.57-.25-.68.4-.88.96-.58 1.48M151.44 74.74c-.04.02-.12.04-.17.04l-.46-.88c.05-.04.13-.1.17-.09.02.01.11.1.2.2.02.03.05.04.08.02.15-.07.39-.19.51-.25l.91-.47c.29-.15.6-.35.34-.84-.16-.31-.49-.59-.97-.71l-1.62.84c.06.18.11.33.09.35-.04.02-.12.04-.17.05l-.46-.88c.04-.04.13-.1.17-.09.02.01.14.14.2.2.02.03.05.04.08.02.15-.07.39-.19.51-.25l2.65-1.38c.1-.05.14-.07.11-.18l-.07-.23c.04-.03.1-.07.15-.08.11.1.3.34.38.47l.01.11-1.75.91.01.03c.39.1.81.4 1 .77.12.24.14.49.04.72-.11.25-.31.36-.6.51l-1.43.75c.07.17.11.33.09.34M152.83 77.87c-.11-.12-.28-.34-.34-.46-.04-.09-.01-.16.15-.23l.23-.11-.01-.02c-.34-.09-.78-.4-.95-.75-.11-.22-.16-.46-.05-.7.12-.29.39-.42.68-.56l1.25-.61c.09-.05.14-.07.11-.18l-.05-.21c.04-.04.1-.07.16-.08.1.1.28.33.36.46l.01.11-1.82.88c-.37.18-.51.41-.31.81.17.35.49.57.92.69l1.48-.72c.09-.05.15-.07.11-.18l-.07-.25c.04-.03.1-.07.16-.08.11.11.3.37.38.49l.01.11-2.26 1.1c-.06.03-.08.06-.06.11.03.08.07.19.11.26-.06.06-.15.11-.2.12M155.1 82.61c-.04.02-.12.04-.17.04l-.4-.91c.05-.04.14-.09.17-.08.02.01.11.11.18.22.02.03.04.04.08.03.15-.06.4-.16.53-.22l.94-.42c.35-.15.62-.32.41-.78-.13-.29-.39-.54-.79-.69q-.12.06-.27.12l-1.49.66c.05.18.09.34.07.35-.04.02-.12.03-.17.04l-.4-.91c.05-.04.14-.09.17-.08.02.01.11.11.18.22.02.03.04.04.08.03.15-.06.4-.16.53-.22l.94-.42c.35-.16.62-.32.41-.79-.13-.3-.41-.55-.83-.69l-1.73.77c.05.18.09.34.07.35-.04.02-.12.03-.18.03l-.4-.91c.05-.03.14-.09.17-.08.02.01.14.15.18.22.02.03.04.04.08.03.15-.06.4-.16.53-.22l1.36-.6c.09-.04.15-.07.12-.17l-.05-.23c.04-.04.1-.06.16-.07.1.11.28.36.35.49v.11l-.38.17.01.02c.34.11.7.38.86.75.11.25.12.49 0 .71-.03.07-.08.12-.13.17l.02.04c.34.11.7.39.86.76.11.25.12.49 0 .71s-.34.32-.64.45l-1.49.66c.04.17.08.33.06.34M156.11 85.42a.66.66 0 0 1-.27-.33c-.07-.17 0-.31.17-.38l.14-.06v-.01c-.05-.01-.1-.03-.15-.05-.21-.08-.51-.23-.67-.63s-.12-.83.33-1.01c.33-.14.67-.07.99.2.22.19.5.55.72.98l.27-.11c.31-.12.53-.38.34-.84-.1-.24-.28-.41-.36-.44-.08 0-.24.06-.33.1a.8.8 0 0 1-.2-.28c-.03-.08 0-.13.07-.16.1-.04.23-.03.38.03.23.1.58.34.75.75.13.31.11.58-.02.78-.14.21-.38.32-.56.4l-1.4.57c-.11.04-.18.1-.13.22.03.08.06.12.08.16-.01.05-.1.1-.15.11m-.46-1.52c.11.28.32.46.52.56.05.03.11.06.17.09l.83-.34a2.7 2.7 0 0 0-.62-.82c-.18-.14-.44-.24-.68-.14-.26.11-.36.33-.22.65M157.44 88.67c-.04.01-.12.03-.18.03l-.35-.93c.05-.04.14-.08.17-.06.02.01.1.12.17.23.02.03.04.05.08.03.15-.05.41-.14.54-.19l.96-.36c.3-.11.63-.27.44-.8-.12-.33-.42-.63-.87-.81l-1.72.64c.04.18.07.35.05.35-.04.01-.12.03-.18.02l-.35-.93c.05-.03.14-.08.17-.06.02.01.13.16.17.23.02.03.04.05.08.03.15-.05.41-.14.54-.19l1.4-.52c.1-.04.15-.06.13-.17l-.04-.23c.04-.03.1-.06.16-.06.09.12.26.37.32.51v.11l-.44.16.01.02c.38.15.75.49.9.89.09.25.08.5-.05.73-.14.23-.35.31-.66.43l-1.52.57c.07.15.09.32.07.33M158.14 90.62c.02.01.13.18.17.25.02.03.04.05.08.03.16-.05.41-.13.55-.17l2.83-.96c.1-.04.15-.05.14-.16l-.05-.27c.04-.03.11-.06.16-.06.09.12.26.42.31.55l-.01.11-3.91 1.32c.04.19.06.36.04.37-.04.01-.12.02-.18.02l-.33-.98c.07-.02.17-.06.2-.05M161.13 91.34c.09.12.25.41.31.55l-.01.11-2.5.81c.04.19.06.37.04.37-.04.01-.12.02-.18.02l-.32-.98c.05-.03.15-.07.18-.06.02.01.12.17.17.25.02.03.04.05.08.04.16-.04.41-.12.55-.17l1.42-.46c.1-.03.16-.05.14-.16l-.03-.26c.03-.04.09-.06.15-.06m1.13-.16c.15-.05.32.03.37.19s-.04.32-.18.37c-.16.05-.29-.04-.4-.18 0-.18.05-.33.21-.38M163.53 94.45c-.12.04-.22 0-.28-.08l-.01-.04c.1-.24.11-.41.05-.6-.1-.32-.42-.4-.98-.23l-.41.12.24.79-.23.07c-.02.01-.04 0-.05-.02l-.23-.76-2.2.67c.03.17.06.4.04.41-.04.01-.12.02-.18.02l-.31-1.01c.05-.03.15-.07.18-.05.02.01.12.16.16.24.02.03.04.05.08.04.16-.04.42-.12.55-.16l1.58-.48-.15-.49c0-.02.14-.06.2-.07.04.09.13.29.21.46l.01.02.24-.07c.34-.1.61-.13.84-.07.38.08.66.36.78.74.09.29.04.5-.13.55M160.13 96.89c.1.33.24.6.44.79l-.11.12c-.33-.18-.56-.55-.66-.92-.22-.78.16-1.42 1.02-1.67.95-.27 1.69.08 1.92.87.1.35.05.7-.15.96-.15.19-.35.31-.62.39-.13.04-.29.08-.4.09l-.57-1.98-.07.02c-.55.15-1.02.55-.8 1.33m1.61.26.12-.04c.52-.15.73-.52.58-1.01-.17-.58-.72-.73-1.19-.64zM161.42 102.41c-.1-.08-.17-.19-.22-.37-.04-.18.04-.31.22-.35l.15-.04v-.01a1 1 0 0 1-.14-.07c-.2-.11-.47-.3-.57-.72s0-.84.48-.95c.35-.09.68.03.95.34.19.22.42.62.57 1.07l.28-.07c.32-.08.58-.3.46-.79-.06-.25-.22-.45-.29-.48-.08-.01-.25.02-.34.05a1 1 0 0 1-.16-.3c-.02-.08.02-.13.09-.15.1-.02.24.01.37.09.22.13.53.42.63.85.08.33.03.59-.13.77-.17.19-.42.26-.61.31l-1.47.36c-.11.03-.2.07-.17.2.02.08.04.13.06.17-.02.05-.11.08-.16.09m-.25-1.58c.07.29.25.5.44.63.05.04.1.08.16.11l.87-.21c-.12-.37-.34-.73-.5-.9s-.4-.3-.66-.24c-.27.07-.39.27-.31.61M162.28 105.81a.5.5 0 0 1-.18 0l-.21-.97c.05-.03.15-.06.18-.04.02.01.08.13.14.25.01.03.04.05.08.04.16-.03.42-.08.56-.11l1-.22c.32-.07.67-.18.55-.73-.08-.35-.32-.68-.74-.93l-1.79.39c.02.19.02.35 0 .36a.5.5 0 0 1-.18 0l-.21-.97c.05-.02.15-.06.18-.04.02.01.1.17.14.25.01.03.04.05.08.04.16-.03.42-.08.56-.11l1.46-.32c.1-.02.16-.03.15-.15v-.24c.05-.03.11-.04.17-.04.08.13.2.41.25.55l-.02.1-.46.1v.02c.35.2.68.59.77 1.01.06.26.01.51-.15.72-.17.21-.39.26-.71.33l-1.58.34c-.02.2-.02.36-.04.37M162.77 109.1c-.07-.14-.16-.37-.19-.5-.01-.07.03-.13.15-.15l.27-.05a.9.9 0 0 1-.23-.15c-.16-.12-.36-.3-.44-.72-.11-.59.15-1.26 1.13-1.44.91-.17 1.73.22 1.89 1.05.06.29.03.61-.09.81l.61-.13.57-.11c.11-.02.16-.03.16-.14l-.01-.26a.25.25 0 0 1 .17-.03c.08.13.2.44.24.58l-.02.1-3.94.75c-.07.01-.09.04-.09.09.01.08.02.18.04.25-.06.03-.16.06-.22.05m-.12-1.53c.05.29.21.47.33.59.06.07.14.12.22.18l1.64-.31c.09-.1.16-.2.22-.3.04-.14.06-.32.02-.52-.14-.73-.86-.88-1.48-.76-.78.14-1.06.57-.95 1.12M165.84 110.72c.07.14.18.44.22.59l-.03.1-2.59.41c.01.19 0 .37-.02.37-.04.01-.12 0-.18-.01l-.16-1.02c.05-.02.16-.05.18-.03.02.01.09.19.12.27.01.03.03.05.07.05.16-.02.42-.06.57-.08l1.47-.23c.1-.02.16-.03.16-.14l.01-.26c.06-.01.12-.03.18-.02m1.13.02c.15-.02.31.08.33.25.03.17-.09.31-.24.34-.16.03-.28-.09-.36-.24.04-.18.11-.32.27-.35M163.75 115.53c-.07-.14-.15-.38-.16-.51-.01-.07.04-.13.16-.15l.27-.04c-.07-.04-.14-.09-.22-.16-.15-.13-.35-.32-.41-.75-.08-.59.21-1.25 1.2-1.39.92-.13 1.72.31 1.83 1.15.04.29 0 .62-.13.81l.61-.1.58-.08c.11-.02.16-.02.17-.13v-.26c.05-.02.11-.03.17-.02.07.14.18.45.21.6l-.03.1-3.99.55c-.07.01-.09.04-.09.09 0 .08.01.18.02.25-.02.03-.13.05-.19.04m-.04-1.54c.04.29.19.48.3.6.06.07.13.13.21.19l1.66-.23c.1-.1.17-.19.24-.29.05-.14.07-.31.05-.52-.1-.74-.82-.92-1.44-.84-.8.12-1.1.54-1.02 1.09M164.14 117.39c.04.35.13.63.31.85l-.13.1c-.3-.23-.46-.64-.5-1.02-.09-.81.4-1.38 1.28-1.47.99-.11 1.65.37 1.74 1.18.04.36-.07.7-.31.92-.18.17-.4.25-.68.28-.14.02-.3.03-.41.02l-.23-2.05-.07.01c-.55.05-1.09.37-1 1.18m1.55.52.13-.01c.54-.06.8-.39.75-.89-.07-.61-.58-.85-1.07-.83zM164.39 121.41c-.09-.1-.14-.21-.16-.39s.09-.3.27-.32l.16-.01v-.01c-.04-.03-.09-.06-.13-.09-.18-.14-.42-.37-.46-.8s.13-.83.62-.87c.36-.03.67.13.89.48.16.25.32.68.41 1.15l.29-.03c.33-.03.62-.21.57-.71-.02-.26-.15-.48-.22-.52a1.3 1.3 0 0 0-.34 0 .9.9 0 0 1-.11-.32c-.01-.09.04-.13.12-.13.1-.01.23.04.35.14.2.16.46.5.5.94.03.34-.06.59-.25.75-.2.16-.45.2-.65.22l-1.51.14c-.12.01-.21.04-.19.17q.015.12.03.18c-.05.01-.14.04-.19.03m0-1.59c.03.3.18.53.33.69.04.04.09.09.14.13l.89-.08c-.06-.38-.23-.77-.35-.97-.13-.19-.35-.36-.61-.34-.28.04-.44.22-.4.57M164.37 122.07l.05-.21c.01-.03.02-.03.04-.03l.67-.04c.02.05.02.09.01.14l-.29.15c-.18.08-.33.28-.3.75s.28.66.57.64c.32-.02.42-.27.5-.56l.14-.46c.1-.36.33-.69.74-.72.35-.02.79.23.83.88.02.27-.02.45-.08.67l-.08.22c-.01.02-.02.03-.04.03l-.56.04c-.01-.03-.02-.08-.01-.13l.25-.15c.13-.07.3-.23.28-.68-.03-.42-.25-.56-.51-.55-.31.02-.4.24-.49.54l-.13.46c-.13.44-.33.71-.75.74-.39.03-.85-.21-.91-1.04-.01-.27.03-.51.07-.69M164.73 124.44c.17-.01.33.12.33.3.01.18-.13.32-.3.33s-.28-.12-.37-.29c.08-.19.17-.33.34-.34" class="st0"/></svg>